# This file uses centimeters as units for non-parametric coordinates.

mtllib centro.mtl
g default
v 7.280614 2.910670 -2.501363
v 9.696037 2.910670 -2.501363
v 7.280614 5.326095 -2.501363
v 9.696037 5.326095 -2.501363
v 7.280614 5.326095 -4.916788
v 9.696037 5.326095 -4.916788
v 7.280614 2.910670 -4.916788
v 9.696037 2.910670 -4.916788
v 9.696035 4.118382 -3.709076
v 7.280615 4.118382 -3.709076
v 8.488325 2.910670 -3.709076
v 8.488325 4.118382 -4.916788
v 8.488325 5.326095 -3.709076
v 8.488325 4.118382 -2.501363
v 7.280614 5.326095 -3.709076
v 9.696037 5.326095 -3.709076
v 7.280614 4.118382 -2.501363
v 9.696037 4.118382 -2.501363
v 7.280614 4.118382 -4.916788
v 9.696037 4.118382 -4.916788
v 9.696037 2.910670 -3.709076
v 7.280614 2.910670 -3.709076
v 8.488325 2.910670 -4.916788
v 8.488325 5.326095 -4.916788
v 8.488325 5.326095 -2.501363
v 8.488325 2.910670 -2.501363
v 7.280614 2.910670 2.329488
v 9.696037 2.910670 2.329488
v 7.280614 5.326095 2.329488
v 9.696037 5.326095 2.329488
v 7.280614 5.326095 -0.085938
v 9.696037 5.326095 -0.085938
v 7.280614 2.910670 -0.085938
v 9.696037 2.910670 -0.085938
v 9.696035 4.118382 1.121775
v 7.280615 4.118382 1.121775
v 8.488325 2.910670 1.121775
v 8.488325 4.118382 -0.085938
v 8.488325 5.326095 1.121775
v 8.488325 4.118382 2.329488
v 7.280614 5.326095 1.121775
v 9.696037 5.326095 1.121775
v 7.280614 4.118382 2.329488
v 9.696037 4.118382 2.329488
v 7.280614 4.118382 -0.085938
v 9.696037 4.118382 -0.085938
v 9.696037 2.910670 1.121775
v 7.280614 2.910670 1.121775
v 8.488325 2.910670 -0.085938
v 8.488325 5.326095 -0.085938
v 8.488325 5.326095 2.329488
v 8.488325 2.910670 2.329488
v 7.280614 2.910670 -0.085938
v 9.696037 2.910670 -0.085938
v 7.280614 5.326095 -0.085938
v 9.696037 5.326095 -0.085938
v 7.280614 5.326095 -2.501363
v 9.696037 5.326095 -2.501363
v 7.280614 2.910670 -2.501363
v 9.696037 2.910670 -2.501363
v 9.696035 4.118382 -1.293650
v 7.280615 4.118382 -1.293650
v 8.488325 2.910670 -1.293650
v 8.488325 4.118382 -2.501363
v 8.488325 5.326095 -1.293650
v 8.488325 4.118382 -0.085938
v 7.280614 5.326095 -1.293650
v 9.696037 5.326095 -1.293650
v 7.280614 4.118382 -0.085938
v 9.696037 4.118382 -0.085938
v 7.280614 4.118382 -2.501363
v 9.696037 4.118382 -2.501363
v 9.696037 2.910670 -1.293650
v 7.280614 2.910670 -1.293650
v 8.488325 2.910670 -2.501363
v 8.488325 5.326095 -2.501363
v 8.488325 5.326095 -0.085938
v 8.488325 2.910670 -0.085938
vt 0.709889 0.869650
vt 0.709508 0.815100
vt 0.709889 0.916263
vt 0.709735 0.962810
vt 0.614468 0.913785
vt 0.614400 0.867109
vt 0.664169 0.865293
vt 0.664177 0.820583
vt 0.708878 0.865301
vt 0.708886 0.820592
vt 0.663516 0.815104
vt 0.663512 0.769112
vt 0.663276 0.869650
vt 0.663276 0.916263
vt 0.686510 0.792106
vt 0.686582 0.892957
vt 0.686528 0.842942
vt 0.637772 0.890413
vt 0.686543 0.939670
vt 0.735127 0.890510
vt 0.686517 0.916505
vt 0.686582 0.916263
vt 0.686569 0.962836
vt 0.686508 0.769110
vt 0.735131 0.913668
vt 0.735123 0.867352
vt 0.637806 0.913751
vt 0.663276 0.892957
vt 0.637738 0.867075
vt 0.663514 0.792108
vt 0.686532 0.820588
vt 0.686512 0.815102
vt 0.686524 0.865297
vt 0.686582 0.869650
vt 0.661110 0.890379
vt 0.663377 0.939696
vt 0.758285 0.890506
vt 0.711969 0.890514
vt 0.708882 0.842946
vt 0.709683 0.916478
vt 0.709889 0.892957
vt 0.711973 0.913672
vt 0.661076 0.867041
vt 0.664173 0.842938
vt 0.661144 0.913717
vt 0.663403 0.962862
vt 0.614434 0.890447
vt 0.663351 0.916530
vt 0.709504 0.769108
vt 0.758281 0.867347
vt 0.709709 0.939644
vt 0.711965 0.867356
vt 0.709506 0.792104
vt 0.758289 0.913664
vt 0.711973 0.913672
vt 0.735127 0.890510
vt 0.735131 0.913668
vt 0.758289 0.913664
vt 0.758285 0.890506
vt 0.709683 0.916478
vt 0.686543 0.939670
vt 0.686517 0.916505
vt 0.663351 0.916530
vt 0.663377 0.939696
vt 0.614468 0.913785
vt 0.637772 0.890413
vt 0.637806 0.913751
vt 0.661144 0.913717
vt 0.661110 0.890379
vt 0.664169 0.865293
vt 0.686528 0.842942
vt 0.686524 0.865297
vt 0.708882 0.842946
vt 0.708886 0.820592
vt 0.709506 0.792104
vt 0.686510 0.792106
vt 0.709504 0.769108
vt 0.686508 0.769110
vt 0.663512 0.769112
vt 0.663276 0.892957
vt 0.686582 0.892957
vt 0.663276 0.916263
vt 0.686582 0.916263
vt 0.709889 0.916263
vt 0.686512 0.815102
vt 0.709508 0.815100
vt 0.663516 0.815104
vt 0.663514 0.792108
vt 0.686582 0.869650
vt 0.663276 0.869650
vt 0.709889 0.869650
vt 0.709889 0.892957
vt 0.664173 0.842938
vt 0.686532 0.820588
vt 0.614434 0.890447
vt 0.637738 0.867075
vt 0.661076 0.867041
vt 0.709709 0.939644
vt 0.686569 0.962836
vt 0.663403 0.962862
vt 0.711965 0.867356
vt 0.711969 0.890514
vt 0.735123 0.867352
vt 0.758281 0.867347
vt 0.709735 0.962810
vt 0.614400 0.867109
vt 0.664177 0.820583
vt 0.708878 0.865301
vt 0.711973 0.913672
vt 0.735127 0.890510
vt 0.735131 0.913668
vt 0.758289 0.913664
vt 0.758285 0.890506
vt 0.709683 0.916478
vt 0.686543 0.939670
vt 0.686517 0.916505
vt 0.663351 0.916530
vt 0.663377 0.939696
vt 0.614468 0.913785
vt 0.637772 0.890413
vt 0.637806 0.913751
vt 0.661144 0.913717
vt 0.661110 0.890379
vt 0.664169 0.865293
vt 0.686528 0.842942
vt 0.686524 0.865297
vt 0.708882 0.842946
vt 0.708886 0.820592
vt 0.709506 0.792104
vt 0.686510 0.792106
vt 0.709504 0.769108
vt 0.686508 0.769110
vt 0.663512 0.769112
vt 0.663276 0.892957
vt 0.686582 0.892957
vt 0.663276 0.916263
vt 0.686582 0.916263
vt 0.709889 0.916263
vt 0.686512 0.815102
vt 0.709508 0.815100
vt 0.663516 0.815104
vt 0.663514 0.792108
vt 0.686582 0.869650
vt 0.663276 0.869650
vt 0.709889 0.869650
vt 0.709889 0.892957
vt 0.664173 0.842938
vt 0.686532 0.820588
vt 0.614434 0.890447
vt 0.637738 0.867075
vt 0.661076 0.867041
vt 0.709709 0.939644
vt 0.686569 0.962836
vt 0.663403 0.962862
vt 0.711965 0.867356
vt 0.711969 0.890514
vt 0.735123 0.867352
vt 0.758281 0.867347
vt 0.709735 0.962810
vt 0.614400 0.867109
vt 0.664177 0.820583
vt 0.708878 0.865301
vn 0.000000 0.000000 1.000000
vn 0.000000 0.000000 1.000000
vn 0.000000 0.000000 1.000000
vn 0.000000 0.000000 1.000000
vn 0.000000 0.000000 1.000000
vn 0.000000 1.000000 0.000000
vn 0.000000 1.000000 0.000000
vn 0.000000 1.000000 0.000000
vn 0.000000 1.000000 0.000000
vn 0.000000 1.000000 0.000000
vn 0.000000 0.000000 -1.000000
vn 0.000000 0.000000 -1.000000
vn 0.000000 0.000000 -1.000000
vn 0.000000 0.000000 -1.000000
vn 0.000000 0.000000 -1.000000
vn 0.000000 -1.000000 0.000000
vn 0.000000 -1.000000 0.000000
vn 0.000000 -1.000000 0.000000
vn 0.000000 -1.000000 0.000000
vn 0.000000 -1.000000 0.000000
vn 1.000000 0.000000 -0.000002
vn 1.000000 0.000000 0.000000
vn 1.000000 -0.000001 -0.000001
vn 1.000000 -0.000001 0.000000
vn 1.000000 -0.000001 0.000001
vn -1.000000 0.000000 0.000001
vn -1.000000 0.000000 0.000000
vn -1.000000 -0.000001 0.000000
vn -1.000000 -0.000001 0.000000
vn -1.000000 -0.000001 -0.000000
vn 1.000000 0.000001 0.000000
vn 1.000000 0.000001 -0.000001
vn 1.000000 0.000001 0.000001
vn 1.000000 0.000000 0.000002
vn -1.000000 0.000001 0.000000
vn -1.000000 0.000001 0.000000
vn -1.000000 0.000001 -0.000000
vn -1.000000 0.000000 -0.000001
vn 0.000000 -1.000000 0.000000
vn 0.000000 -1.000000 0.000000
vn 0.000000 0.000000 -1.000000
vn 0.000000 0.000000 -1.000000
vn 0.000000 0.000000 -1.000000
vn 0.000000 1.000000 0.000000
vn 0.000000 1.000000 0.000000
vn 0.000000 1.000000 0.000000
vn 0.000000 0.000000 1.000000
vn 0.000000 0.000000 1.000000
vn 0.000000 0.000000 1.000000
vn 0.000000 0.000000 1.000000
vn 0.000000 1.000000 0.000000
vn 0.000000 0.000000 -1.000000
vn 0.000000 -1.000000 0.000000
vn 0.000000 -1.000000 0.000000
vn 0.000000 0.000000 1.000000
vn 0.000000 0.000000 1.000000
vn 0.000000 0.000000 1.000000
vn 0.000000 0.000000 1.000000
vn 0.000000 0.000000 1.000000
vn 0.000000 1.000000 0.000000
vn 0.000000 1.000000 0.000000
vn 0.000000 1.000000 0.000000
vn 0.000000 1.000000 0.000000
vn 0.000000 1.000000 0.000000
vn 0.000000 0.000000 -1.000000
vn 0.000000 0.000000 -1.000000
vn 0.000000 0.000000 -1.000000
vn 0.000000 0.000000 -1.000000
vn 0.000000 0.000000 -1.000000
vn 0.000000 -1.000000 0.000000
vn 0.000000 -1.000000 0.000000
vn 0.000000 -1.000000 0.000000
vn 0.000000 -1.000000 0.000000
vn 0.000000 -1.000000 0.000000
vn 1.000000 0.000000 -0.000002
vn 1.000000 0.000000 0.000000
vn 1.000000 -0.000001 -0.000001
vn 1.000000 -0.000001 0.000000
vn 1.000000 -0.000001 0.000001
vn -1.000000 0.000000 0.000001
vn -1.000000 0.000000 0.000000
vn -1.000000 -0.000001 0.000000
vn -1.000000 -0.000001 0.000000
vn -1.000000 -0.000001 -0.000000
vn 1.000000 0.000001 0.000000
vn 1.000000 0.000001 -0.000001
vn 1.000000 0.000001 0.000001
vn 1.000000 0.000000 0.000002
vn -1.000000 0.000001 0.000000
vn -1.000000 0.000001 0.000000
vn -1.000000 0.000001 -0.000000
vn -1.000000 0.000000 -0.000001
vn 0.000000 -1.000000 0.000000
vn 0.000000 -1.000000 0.000000
vn 0.000000 0.000000 -1.000000
vn 0.000000 0.000000 -1.000000
vn 0.000000 0.000000 -1.000000
vn 0.000000 1.000000 0.000000
vn 0.000000 1.000000 0.000000
vn 0.000000 1.000000 0.000000
vn 0.000000 0.000000 1.000000
vn 0.000000 0.000000 1.000000
vn 0.000000 0.000000 1.000000
vn 0.000000 0.000000 1.000000
vn 0.000000 1.000000 0.000000
vn 0.000000 0.000000 -1.000000
vn 0.000000 -1.000000 0.000000
vn 0.000000 -1.000000 0.000000
vn 0.000000 0.000000 1.000000
vn 0.000000 0.000000 1.000000
vn 0.000000 0.000000 1.000000
vn 0.000000 0.000000 1.000000
vn 0.000000 0.000000 1.000000
vn 0.000000 1.000000 0.000000
vn 0.000000 1.000000 0.000000
vn 0.000000 1.000000 0.000000
vn 0.000000 1.000000 0.000000
vn 0.000000 1.000000 0.000000
vn 0.000000 0.000000 -1.000000
vn 0.000000 0.000000 -1.000000
vn 0.000000 0.000000 -1.000000
vn 0.000000 0.000000 -1.000000
vn 0.000000 0.000000 -1.000000
vn 0.000000 -1.000000 0.000000
vn 0.000000 -1.000000 0.000000
vn 0.000000 -1.000000 0.000000
vn 0.000000 -1.000000 0.000000
vn 0.000000 -1.000000 0.000000
vn 1.000000 0.000000 -0.000002
vn 1.000000 0.000000 0.000000
vn 1.000000 -0.000001 -0.000001
vn 1.000000 -0.000001 0.000000
vn 1.000000 -0.000001 0.000001
vn -1.000000 0.000000 0.000001
vn -1.000000 0.000000 0.000000
vn -1.000000 -0.000001 0.000000
vn -1.000000 -0.000001 0.000000
vn -1.000000 -0.000001 -0.000000
vn 1.000000 0.000001 0.000000
vn 1.000000 0.000001 -0.000001
vn 1.000000 0.000001 0.000001
vn 1.000000 0.000000 0.000002
vn -1.000000 0.000001 0.000000
vn -1.000000 0.000001 0.000000
vn -1.000000 0.000001 -0.000000
vn -1.000000 0.000000 -0.000001
vn 0.000000 -1.000000 0.000000
vn 0.000000 -1.000000 0.000000
vn 0.000000 0.000000 -1.000000
vn 0.000000 0.000000 -1.000000
vn 0.000000 0.000000 -1.000000
vn 0.000000 1.000000 0.000000
vn 0.000000 1.000000 0.000000
vn 0.000000 1.000000 0.000000
vn 0.000000 0.000000 1.000000
vn 0.000000 0.000000 1.000000
vn 0.000000 0.000000 1.000000
vn 0.000000 0.000000 1.000000
vn 0.000000 1.000000 0.000000
vn 0.000000 0.000000 -1.000000
vn 0.000000 -1.000000 0.000000
vn 0.000000 -1.000000 0.000000
s 1
g centro2
usemtl textura_madera1
f 1/42/1 14/20/2 17/25/3
f 3/54/4 14/20/2 25/37/5
s 2
f 3/40/6 13/19/7 15/21/8
f 5/48/9 13/19/7 24/36/10
s 3
f 5/5/11 12/18/12 19/27/13
f 7/45/14 12/18/12 23/35/15
s 4
f 7/7/16 11/17/17 22/33/18
f 26/39/19 11/17/17 2/10/20
s 6
f 18/53/21 9/15/22 4/49/23
f 16/24/24 9/15/22 6/12/25
s 7
f 19/28/26 10/16/27 5/14/28
f 15/22/29 10/16/27 3/3/30
s 6
f 21/32/31 9/15/22 2/2/32
f 9/15/22 8/11/33 20/30/34
s 7
f 22/34/35 10/16/27 7/13/36
f 10/16/27 1/1/37 17/41/38
s 4
f 23/44/39 11/17/17 7/7/16
f 11/17/17 21/31/40 2/10/20
s 3
f 24/47/41 12/18/12 5/5/11
f 12/18/12 20/29/42 8/43/43
s 2
f 25/51/44 13/19/7 3/40/6
f 13/19/7 16/23/45 6/46/46
s 1
f 2/52/47 14/20/2 26/38/48
f 14/20/2 18/26/49 4/50/50
s 2
f 5/48/9 15/21/8 13/19/7
s 7
f 15/22/29 5/14/28 10/16/27
s 2
f 4/4/51 16/23/45 13/19/7
s 6
f 16/24/24 4/49/23 9/15/22
s 1
f 3/54/4 17/25/3 14/20/2
s 7
f 17/41/38 3/3/30 10/16/27
s 1
f 2/52/47 18/26/49 14/20/2
s 6
f 18/53/21 2/2/32 9/15/22
s 3
f 7/45/14 19/27/13 12/18/12
s 7
f 19/28/26 7/13/36 10/16/27
s 3
f 6/6/52 20/29/42 12/18/12
s 6
f 20/30/34 6/12/25 9/15/22
s 4
f 8/8/53 21/31/40 11/17/17
s 6
f 21/32/31 8/11/33 9/15/22
s 4
f 1/9/54 22/33/18 11/17/17
s 7
f 22/34/35 1/1/37 10/16/27
s 3
f 8/43/43 23/35/15 12/18/12
s 4
f 23/44/39 8/8/53 11/17/17
s 2
f 6/46/46 24/36/10 13/19/7
s 3
f 24/47/41 6/6/52 12/18/12
s 1
f 4/50/50 25/37/5 14/20/2
s 2
f 25/51/44 4/4/51 13/19/7
s 1
f 1/42/1 26/38/48 14/20/2
s 4
f 26/39/19 1/9/54 11/17/17
s 13
f 27/55/55 40/56/56 43/57/57
f 29/58/58 40/56/56 51/59/59
s 14
f 29/60/60 39/61/61 41/62/62
f 31/63/63 39/61/61 50/64/64
s 15
f 31/65/65 38/66/66 45/67/67
f 33/68/68 38/66/66 49/69/69
s 16
f 33/70/70 37/71/71 48/72/72
f 52/73/73 37/71/71 28/74/74
s 18
f 44/75/75 35/76/76 30/77/77
f 42/78/78 35/76/76 32/79/79
s 19
f 45/80/80 36/81/81 31/82/82
f 41/83/83 36/81/81 29/84/84
s 18
f 47/85/85 35/76/76 28/86/86
f 35/76/76 34/87/87 46/88/88
s 19
f 48/89/89 36/81/81 33/90/90
f 36/81/81 27/91/91 43/92/92
s 16
f 49/93/93 37/71/71 33/70/70
f 37/71/71 47/94/94 28/74/74
s 15
f 50/95/95 38/66/66 31/65/65
f 38/66/66 46/96/96 34/97/97
s 14
f 51/98/98 39/61/61 29/60/60
f 39/61/61 42/99/99 32/100/100
s 13
f 28/101/101 40/56/56 52/102/102
f 40/56/56 44/103/103 30/104/104
s 14
f 31/63/63 41/62/62 39/61/61
s 19
f 41/83/83 31/82/82 36/81/81
s 14
f 30/105/105 42/99/99 39/61/61
s 18
f 42/78/78 30/77/77 35/76/76
s 13
f 29/58/58 43/57/57 40/56/56
s 19
f 43/92/92 29/84/84 36/81/81
s 13
f 28/101/101 44/103/103 40/56/56
s 18
f 44/75/75 28/86/86 35/76/76
s 15
f 33/68/68 45/67/67 38/66/66
s 19
f 45/80/80 33/90/90 36/81/81
s 15
f 32/106/106 46/96/96 38/66/66
s 18
f 46/88/88 32/79/79 35/76/76
s 16
f 34/107/107 47/94/94 37/71/71
s 18
f 47/85/85 34/87/87 35/76/76
s 16
f 27/108/108 48/72/72 37/71/71
s 19
f 48/89/89 27/91/91 36/81/81
s 15
f 34/97/97 49/69/69 38/66/66
s 16
f 49/93/93 34/107/107 37/71/71
s 14
f 32/100/100 50/64/64 39/61/61
s 15
f 50/95/95 32/106/106 38/66/66
s 13
f 30/104/104 51/59/59 40/56/56
s 14
f 51/98/98 30/105/105 39/61/61
s 13
f 27/55/55 52/102/102 40/56/56
s 16
f 52/73/73 27/108/108 37/71/71
s 25
f 53/109/109 66/110/110 69/111/111
f 55/112/112 66/110/110 77/113/113
s 26
f 55/114/114 65/115/115 67/116/116
f 57/117/117 65/115/115 76/118/118
s 27
f 57/119/119 64/120/120 71/121/121
f 59/122/122 64/120/120 75/123/123
s 28
f 59/124/124 63/125/125 74/126/126
f 78/127/127 63/125/125 54/128/128
s 30
f 70/129/129 61/130/130 56/131/131
f 68/132/132 61/130/130 58/133/133
s 31
f 71/134/134 62/135/135 57/136/136
f 67/137/137 62/135/135 55/138/138
s 30
f 73/139/139 61/130/130 54/140/140
f 61/130/130 60/141/141 72/142/142
s 31
f 74/143/143 62/135/135 59/144/144
f 62/135/135 53/145/145 69/146/146
s 28
f 75/147/147 63/125/125 59/124/124
f 63/125/125 73/148/148 54/128/128
s 27
f 76/149/149 64/120/120 57/119/119
f 64/120/120 72/150/150 60/151/151
s 26
f 77/152/152 65/115/115 55/114/114
f 65/115/115 68/153/153 58/154/154
s 25
f 54/155/155 66/110/110 78/156/156
f 66/110/110 70/157/157 56/158/158
s 26
f 57/117/117 67/116/116 65/115/115
s 31
f 67/137/137 57/136/136 62/135/135
s 26
f 56/159/159 68/153/153 65/115/115
s 30
f 68/132/132 56/131/131 61/130/130
s 25
f 55/112/112 69/111/111 66/110/110
s 31
f 69/146/146 55/138/138 62/135/135
s 25
f 54/155/155 70/157/157 66/110/110
s 30
f 70/129/129 54/140/140 61/130/130
s 27
f 59/122/122 71/121/121 64/120/120
s 31
f 71/134/134 59/144/144 62/135/135
s 27
f 58/160/160 72/150/150 64/120/120
s 30
f 72/142/142 58/133/133 61/130/130
s 28
f 60/161/161 73/148/148 63/125/125
s 30
f 73/139/139 60/141/141 61/130/130
s 28
f 53/162/162 74/126/126 63/125/125
s 31
f 74/143/143 53/145/145 62/135/135
s 27
f 60/151/151 75/123/123 64/120/120
s 28
f 75/147/147 60/161/161 63/125/125
s 26
f 58/154/154 76/118/118 65/115/115
s 27
f 76/149/149 58/160/160 64/120/120
s 25
f 56/158/158 77/113/113 66/110/110
s 26
f 77/152/152 56/159/159 65/115/115
s 25
f 53/109/109 78/156/156 66/110/110
s 28
f 78/127/127 53/162/162 63/125/125
