# Blender 4.2.3 LTS
# www.blender.org
mtllib centro.mtl
o Mesa_centro
v 10.897686 4.250690 4.242821
v 10.897685 4.250690 -5.846353
v 10.897686 4.524768 4.242821
v 10.897685 4.524768 -5.846353
v 7.282951 4.524768 4.242821
v 7.282951 4.524768 -5.846353
v 7.282951 4.250690 4.242821
v 7.282951 4.250690 -5.846353
v 8.080419 4.011090 3.731573
v 8.080419 4.011090 3.487140
v 8.080419 0.015000 3.731573
v 8.080419 0.015000 3.487140
v 8.080419 4.270075 3.487140
v 8.080419 4.270075 3.731573
v 8.080419 4.011090 -5.335106
v 8.080419 4.011090 -5.090674
v 8.080419 0.015000 -5.335106
v 8.080419 0.015000 -5.090674
v 8.080419 4.270075 -5.090674
v 8.080419 4.270075 -5.335106
v 7.798547 4.011090 3.731573
v 7.798547 4.011090 3.487140
v 7.798547 0.015000 3.487140
v 7.798547 0.015000 3.731573
v 7.798547 4.270075 3.731573
v 7.798547 4.270075 3.487140
v 7.798546 4.011090 -5.335106
v 7.798546 0.015000 -5.335106
v 7.798546 0.015000 -5.090674
v 7.798546 4.011090 -5.090674
v 7.798546 4.270075 -5.090674
v 7.798546 4.270075 -5.335106
v 10.097464 4.011090 -5.335106
v 10.097464 4.011090 -5.090674
v 10.097464 0.015000 -5.335106
v 10.097464 0.015000 -5.090674
v 10.097464 4.270075 -5.090674
v 10.097464 4.270075 -5.335106
v 10.097464 4.011090 3.731573
v 10.097464 4.011090 3.487140
v 10.097464 0.015000 3.731573
v 10.097464 0.015000 3.487140
v 10.097464 4.270075 3.487140
v 10.097464 4.270075 3.731573
v 10.379336 4.011090 -5.335106
v 10.379336 4.011090 -5.090674
v 10.379336 0.015000 -5.090674
v 10.379336 0.015000 -5.335106
v 10.379336 4.270075 -5.335106
v 10.379336 4.270075 -5.090674
v 10.379336 4.011090 3.731573
v 10.379337 0.015000 3.731573
v 10.379337 0.015000 3.487140
v 10.379336 4.011090 3.487140
v 10.379336 4.270075 3.487140
v 10.379336 4.270075 3.731573
vn 1.0000 -0.0000 -0.0000
vn -0.0000 1.0000 -0.0000
vn -0.0000 -1.0000 -0.0000
vn -0.0000 -0.0000 -1.0000
vn -1.0000 -0.0000 -0.0000
vn -0.0000 -0.0000 1.0000
vt 0.652607 0.642330
vt 0.862763 0.625871
vt 0.862759 0.642319
vt 0.656791 0.820150
vt 0.855435 0.668686
vt 0.855431 0.820156
vt 0.379199 0.822967
vt 0.577838 0.671508
vt 0.577833 0.822971
vt 0.890853 0.815886
vt 0.875289 0.664419
vt 0.890860 0.664418
vt 0.643474 0.842162
vt 0.861017 0.859078
vt 0.643474 0.859071
vt 0.632500 0.665705
vt 0.617586 0.817326
vt 0.617586 0.665705
vt 0.487918 0.529400
vt 0.479528 0.598564
vt 0.479536 0.529399
vt 0.480347 0.323255
vt 0.488709 0.186227
vt 0.488729 0.323254
vt 0.286147 0.354936
vt 0.355312 0.491963
vt 0.286147 0.491963
vt 0.480348 0.332136
vt 0.355312 0.500844
vt 0.286147 0.500844
vt 0.385777 0.186242
vt 0.394178 0.323267
vt 0.385796 0.323268
vt 0.387886 0.159569
vt 0.396244 0.090402
vt 0.396268 0.159567
vt 0.252791 0.065295
vt 0.321956 0.202322
vt 0.252791 0.202322
vt 0.394179 0.332148
vt 0.261874 0.210827
vt 0.331039 0.296996
vt 0.261874 0.296996
vt 0.490819 0.159533
vt 0.482440 0.169202
vt 0.482437 0.159536
vt 0.276482 0.354936
vt 0.276482 0.491963
vt 0.487919 0.519735
vt 0.393368 0.519723
vt 0.479537 0.519734
vt 0.584419 0.354936
vt 0.594084 0.491963
vt 0.584419 0.491963
vt 0.387890 0.169235
vt 0.384985 0.529388
vt 0.393367 0.529389
vt 0.594084 0.500844
vt 0.584419 0.500844
vt 0.250421 0.202322
vt 0.164252 0.065295
vt 0.250421 0.065295
vt 0.396271 0.169232
vt 0.480327 0.186228
vt 0.394159 0.186240
vt 0.393359 0.598554
vt 0.480222 0.491798
vt 0.488604 0.354771
vt 0.488604 0.491798
vt 0.515254 0.491963
vt 0.480222 0.500679
vt 0.515254 0.500844
vt 0.385671 0.354771
vt 0.394053 0.491798
vt 0.385671 0.491798
vt 0.482413 0.090371
vt 0.092718 0.202322
vt 0.161883 0.065295
vt 0.161883 0.202322
vt 0.394053 0.500679
vt 0.387862 0.090405
vt 0.396240 0.080736
vt 0.505588 0.354936
vt 0.515254 0.354936
vt 0.505588 0.491963
vt 0.384976 0.608218
vt 0.384977 0.598553
vt 0.479527 0.608230
vt 0.393358 0.608219
vt 0.355312 0.354936
vt 0.364978 0.491963
vt 0.490791 0.080703
vt 0.490794 0.090368
vt 0.487909 0.598565
vt 0.364978 0.500844
vt 0.165276 0.211531
vt 0.251445 0.348558
vt 0.165276 0.348558
vt 0.482409 0.080706
vt 0.480222 0.354771
vt 0.394053 0.354771
vt 0.652608 0.625856
vt 0.656795 0.668681
vt 0.379203 0.671501
vt 0.875296 0.815888
vt 0.861176 0.842169
vt 0.632500 0.817215
vt 0.488730 0.332135
vt 0.321956 0.065295
vt 0.385798 0.332149
vt 0.331039 0.210827
vt 0.490822 0.169199
vt 0.276482 0.500844
vt 0.594084 0.354936
vt 0.384987 0.519722
vt 0.164252 0.202322
vt 0.488604 0.500679
vt 0.092718 0.065295
vt 0.385671 0.500679
vt 0.387859 0.080739
vt 0.505588 0.500844
vt 0.364978 0.354936
vt 0.487908 0.608231
vt 0.251445 0.211531
s 0
usemtl lambert7SG
f 2/1/1 3/2/1 1/3/1
f 4/4/2 5/5/2 3/6/2
f 8/7/3 1/8/3 7/9/3
f 8/10/4 4/11/4 2/12/4
f 6/13/5 7/14/5 5/15/5
f 5/16/6 1/17/6 3/18/6
f 14/19/2 43/20/2 13/21/2
f 22/22/5 24/23/5 21/24/5
f 11/25/6 39/26/6 9/27/6
f 21/24/5 26/28/5 22/22/5
f 9/27/6 44/29/6 14/30/6
f 28/31/5 30/32/5 27/33/5
f 17/34/3 36/35/3 18/36/3
f 18/37/6 34/38/6 16/39/6
f 31/40/5 27/33/5 30/32/5
f 16/41/3 40/42/3 10/43/3
f 31/40/5 22/22/5 26/28/5
f 11/44/3 23/45/3 12/46/3
f 9/27/6 24/47/6 11/25/6
f 14/30/6 21/48/6 9/27/6
f 13/21/2 25/49/2 14/19/2
f 13/21/2 31/50/2 26/51/2
f 17/52/4 27/53/4 15/54/4
f 18/36/3 28/55/3 17/34/3
f 20/56/2 31/50/2 19/57/2
f 15/54/4 32/58/4 20/59/4
f 16/60/1 12/61/1 18/62/1
f 18/36/3 23/45/3 29/63/3
f 23/64/5 30/32/5 29/65/5
f 37/66/2 20/56/2 19/57/2
f 46/67/1 48/68/1 45/69/1
f 33/70/4 17/52/4 15/54/4
f 45/69/1 50/71/1 46/67/1
f 38/72/4 15/54/4 20/59/4
f 43/20/2 19/57/2 13/21/2
f 52/73/1 54/74/1 51/75/1
f 42/76/3 11/44/3 12/46/3
f 40/77/4 12/78/4 10/79/4
f 55/80/1 51/75/1 54/74/1
f 55/80/1 46/67/1 50/71/1
f 35/81/3 47/82/3 36/35/3
f 33/70/4 48/83/4 35/84/4
f 38/72/4 45/85/4 33/70/4
f 37/66/2 49/86/2 38/87/2
f 37/66/2 55/88/2 50/89/2
f 41/90/6 51/91/6 39/26/6
f 42/76/3 52/92/3 41/93/3
f 44/94/2 55/88/2 43/20/2
f 39/26/6 56/95/6 44/29/6
f 40/96/5 36/97/5 42/98/5
f 42/76/3 47/82/3 53/99/3
f 47/100/1 54/74/1 53/101/1
f 2/1/1 4/102/1 3/2/1
f 4/4/2 6/103/2 5/5/2
f 8/7/3 2/104/3 1/8/3
f 8/10/4 6/105/4 4/11/4
f 6/13/5 8/106/5 7/14/5
f 5/16/6 7/107/6 1/17/6
f 14/19/2 44/94/2 43/20/2
f 22/22/5 23/64/5 24/23/5
f 11/25/6 41/90/6 39/26/6
f 21/24/5 25/108/5 26/28/5
f 9/27/6 39/26/6 44/29/6
f 28/31/5 29/65/5 30/32/5
f 17/34/3 35/81/3 36/35/3
f 18/37/6 36/109/6 34/38/6
f 31/40/5 32/110/5 27/33/5
f 16/41/3 34/111/3 40/42/3
f 31/40/5 30/32/5 22/22/5
f 11/44/3 24/112/3 23/45/3
f 9/27/6 21/48/6 24/47/6
f 14/30/6 25/113/6 21/48/6
f 13/21/2 26/51/2 25/49/2
f 13/21/2 19/57/2 31/50/2
f 17/52/4 28/114/4 27/53/4
f 18/36/3 29/63/3 28/55/3
f 20/56/2 32/115/2 31/50/2
f 15/54/4 27/53/4 32/58/4
f 16/60/1 10/116/1 12/61/1
f 18/36/3 12/46/3 23/45/3
f 23/64/5 22/22/5 30/32/5
f 37/66/2 38/87/2 20/56/2
f 46/67/1 47/100/1 48/68/1
f 33/70/4 35/84/4 17/52/4
f 45/69/1 49/117/1 50/71/1
f 38/72/4 33/70/4 15/54/4
f 43/20/2 37/66/2 19/57/2
f 52/73/1 53/101/1 54/74/1
f 42/76/3 41/93/3 11/44/3
f 40/77/4 42/118/4 12/78/4
f 55/80/1 56/119/1 51/75/1
f 55/80/1 54/74/1 46/67/1
f 35/81/3 48/120/3 47/82/3
f 33/70/4 45/85/4 48/83/4
f 38/72/4 49/121/4 45/85/4
f 37/66/2 50/89/2 49/86/2
f 37/66/2 43/20/2 55/88/2
f 41/90/6 52/122/6 51/91/6
f 42/76/3 53/99/3 52/92/3
f 44/94/2 56/123/2 55/88/2
f 39/26/6 51/91/6 56/95/6
f 40/96/5 34/124/5 36/97/5
f 42/76/3 36/35/3 47/82/3
f 47/100/1 46/67/1 54/74/1
