{
	"asset":{
		"generator":"Khronos glTF Blender I/O v4.2.70",
		"version":"2.0"
	},
	"extensionsUsed":[
		"KHR_materials_specular"
	],
	"scene":0,
	"scenes":[
		{
			"name":"Scene",
			"nodes":[
				0,
				1,
				2
			]
		}
	],
	"nodes":[
		{
			"mesh":0,
			"name":"Ret",
			"rotation":[
				0.7071068286895752,
				0,
				0,
				0.7071068286895752
			],
			"scale":[
				0.001863231067545712,
				0.001863231067545712,
				0.001863231067545712
			]
		},
		{
			"mesh":1,
			"name":"sunglasses",
			"rotation":[
				-0.011941398493945599,
				0.5611948370933533,
				-0.8275865912437439,
				0.004268296528607607
			],
			"scale":[
				0.07083357125520706,
				0.060510579496622086,
				0.06051058694720268
			],
			"translation":[
				-0.004044778645038605,
				1.9115691184997559,
				0.9140245318412781
			]
		},
		{
			"mesh":2,
			"name":"Cylinder",
			"rotation":[
				-0.2678716480731964,
				0.0051809693686664104,
				-0.002872855169698596,
				0.963436484336853
			],
			"scale":[
				1,
				0.5764254331588745,
				0.9556809663772583
			],
			"translation":[
				-0.39597418904304504,
				0.6684394478797913,
				0.8709176778793335
			]
		}
	],
	"animations":[
		{
			"channels":[
				{
					"sampler":0,
					"target":{
						"node":2,
						"path":"translation"
					}
				},
				{
					"sampler":1,
					"target":{
						"node":2,
						"path":"rotation"
					}
				}
			],
			"name":"CylinderAction",
			"samplers":[
				{
					"input":11,
					"interpolation":"LINEAR",
					"output":12
				},
				{
					"input":11,
					"interpolation":"LINEAR",
					"output":13
				}
			]
		}
	],
	"materials":[
		{
			"doubleSided":true,
			"extensions":{},
			"name":"RattoMAT",
			"pbrMetallicRoughness":{
				"baseColorTexture":{
					"index":0
				},
				"metallicFactor":0.5,
				"roughnessFactor":0.7487671971321106
			}
		},
		{
			"doubleSided":true,
			"name":"Material.001",
			"pbrMetallicRoughness":{
				"baseColorFactor":[
					0,
					0,
					0,
					1
				],
				"metallicFactor":0,
				"roughnessFactor":0.5
			}
		}
	],
	"meshes":[
		{
			"name":"Mesh",
			"primitives":[
				{
					"attributes":{
						"POSITION":0,
						"NORMAL":1,
						"TEXCOORD_0":2
					},
					"indices":3,
					"material":0
				}
			]
		},
		{
			"name":"Circle.001",
			"primitives":[
				{
					"attributes":{
						"POSITION":4,
						"NORMAL":5
					},
					"indices":6,
					"material":1
				}
			]
		},
		{
			"name":"Cylinder",
			"primitives":[
				{
					"attributes":{
						"POSITION":7,
						"NORMAL":8,
						"TEXCOORD_0":9
					},
					"indices":10,
					"material":1
				}
			]
		}
	],
	"textures":[
		{
			"sampler":0,
			"source":0
		}
	],
	"images":[
		{
			"mimeType":"image/png",
			"name":"RattoDIFF",
			"uri":"RattoDIFF.png"
		}
	],
	"accessors":[
		{
			"bufferView":0,
			"componentType":5126,
			"count":3652,
			"max":[
				537.812255859375,
				583.977294921875,
				-1.0013580322265625e-05
			],
			"min":[
				-537.8121337890625,
				-1475.272216796875,
				-1093.63916015625
			],
			"type":"VEC3"
		},
		{
			"bufferView":1,
			"componentType":5126,
			"count":3652,
			"type":"VEC3"
		},
		{
			"bufferView":2,
			"componentType":5126,
			"count":3652,
			"type":"VEC2"
		},
		{
			"bufferView":3,
			"componentType":5123,
			"count":19632,
			"type":"SCALAR"
		},
		{
			"bufferView":4,
			"componentType":5126,
			"count":432,
			"max":[
				2.153219223022461,
				3.769326686859131,
				0.9542404413223267
			],
			"min":[
				-2.153219223022461,
				-0.0476670078933239,
				-1.0074570178985596
			],
			"type":"VEC3"
		},
		{
			"bufferView":5,
			"componentType":5126,
			"count":432,
			"type":"VEC3"
		},
		{
			"bufferView":6,
			"componentType":5123,
			"count":846,
			"type":"SCALAR"
		},
		{
			"bufferView":7,
			"componentType":5126,
			"count":42,
			"max":[
				0.03899713605642319,
				1,
				0.036038774996995926
			],
			"min":[
				-0.03899713605642319,
				-1,
				-0.04000002145767212
			],
			"type":"VEC3"
		},
		{
			"bufferView":8,
			"componentType":5126,
			"count":42,
			"type":"VEC3"
		},
		{
			"bufferView":9,
			"componentType":5126,
			"count":42,
			"type":"VEC2"
		},
		{
			"bufferView":10,
			"componentType":5123,
			"count":72,
			"type":"SCALAR"
		},
		{
			"bufferView":11,
			"componentType":5126,
			"count":44,
			"max":[
				1.7916666666666667
			],
			"min":[
				0
			],
			"type":"SCALAR"
		},
		{
			"bufferView":12,
			"componentType":5126,
			"count":44,
			"type":"VEC3"
		},
		{
			"bufferView":13,
			"componentType":5126,
			"count":44,
			"type":"VEC4"
		}
	],
	"bufferViews":[
		{
			"buffer":0,
			"byteLength":43824,
			"byteOffset":0,
			"target":34962
		},
		{
			"buffer":0,
			"byteLength":43824,
			"byteOffset":43824,
			"target":34962
		},
		{
			"buffer":0,
			"byteLength":29216,
			"byteOffset":87648,
			"target":34962
		},
		{
			"buffer":0,
			"byteLength":39264,
			"byteOffset":116864,
			"target":34963
		},
		{
			"buffer":0,
			"byteLength":5184,
			"byteOffset":156128,
			"target":34962
		},
		{
			"buffer":0,
			"byteLength":5184,
			"byteOffset":161312,
			"target":34962
		},
		{
			"buffer":0,
			"byteLength":1692,
			"byteOffset":166496,
			"target":34963
		},
		{
			"buffer":0,
			"byteLength":504,
			"byteOffset":168188,
			"target":34962
		},
		{
			"buffer":0,
			"byteLength":504,
			"byteOffset":168692,
			"target":34962
		},
		{
			"buffer":0,
			"byteLength":336,
			"byteOffset":169196,
			"target":34962
		},
		{
			"buffer":0,
			"byteLength":144,
			"byteOffset":169532,
			"target":34963
		},
		{
			"buffer":0,
			"byteLength":176,
			"byteOffset":169676
		},
		{
			"buffer":0,
			"byteLength":528,
			"byteOffset":169852
		},
		{
			"buffer":0,
			"byteLength":704,
			"byteOffset":170380
		}
	],
	"samplers":[
		{
			"magFilter":9729,
			"minFilter":9987
		}
	],
	"buffers":[
		{
			"byteLength":171084,
			"uri":"rat.bin"
		}
	]
}
