# This file uses centimeters as units for non-parametric coordinates.

mtllib cocos.mtl
g default
v 17.583813 4.934957 10.579888
v 17.559212 4.885968 10.798697
v 18.026321 4.846954 10.726209
v 17.991060 4.902165 10.553509
v 17.860428 4.970410 10.442177
v 17.688597 5.083756 10.401824
v 17.488249 4.967486 10.692697
v 17.627869 4.863584 10.931743
v 17.798429 4.846954 10.993608
v 17.952744 4.825865 10.894312
v 17.509842 5.108186 10.516846
v 17.412407 5.148265 10.724646
v 17.456837 5.078696 10.942258
v 17.621445 4.992702 11.082545
v 18.204838 5.027782 10.786764
v 18.128242 5.044657 10.535320
v 17.973118 5.200226 10.390027
v 17.727131 5.277346 10.379637
v 17.511587 5.306802 10.518333
v 17.865925 4.969473 11.134628
v 18.102062 4.998326 11.021569
v 18.192768 5.227780 10.577228
v 17.417419 5.341915 10.768561
v 17.495251 5.323105 11.026057
v 17.677717 5.227780 11.181566
v 17.923702 5.150661 11.191957
v 18.238426 5.279741 10.846949
v 18.024723 5.383349 10.447095
v 17.807484 5.504874 10.479675
v 17.613037 5.531447 10.604795
v 17.520323 5.504874 10.816617
v 18.150433 5.186513 11.062795
v 18.159142 5.457596 10.696759
v 18.028509 5.525842 10.585426
v 17.790405 5.457596 11.129417
v 17.966511 5.402385 11.136857
v 18.120827 5.381296 11.037561
v 17.874750 5.610890 10.633590
v 17.744879 5.628638 10.717158
v 17.682953 5.610890 10.858635
v 17.659773 5.525842 11.018085
v 18.114262 5.506589 10.883779
v 17.880480 5.636378 10.781662
v 17.821585 5.619499 10.916213
v 17.926146 5.564874 11.005326
v 17.705084 4.816358 10.683242
v 17.945751 5.611648 10.888353
v 16.962988 4.837414 11.283945
v 17.095577 4.837414 11.466435
v 17.396656 4.915140 11.108277
v 17.247225 4.915140 10.999709
v 17.062515 4.915140 10.999709
v 16.874790 4.962475 11.080455
v 16.951378 4.867805 11.431789
v 17.232595 4.867805 11.523162
v 17.396656 4.915140 11.459613
v 17.453735 4.915140 11.283945
v 16.808670 4.962475 11.283945
v 16.850204 5.022121 11.505300
v 17.038496 5.022121 11.642103
v 17.271244 5.022121 11.642103
v 17.492598 5.147885 11.038572
v 17.280634 5.081767 10.896883
v 17.025869 5.147885 10.886924
v 16.817142 5.147885 11.038573
v 16.737417 5.147885 11.283945
v 17.484125 5.081767 11.523162
v 17.572323 5.147885 11.283945
v 17.283871 5.280121 10.886924
v 16.808670 5.214003 11.535473
v 17.025869 5.280121 11.680966
v 17.283871 5.280121 11.680966
v 17.492598 5.280121 11.529317
v 17.459536 5.405885 11.062591
v 17.029106 5.346239 10.896883
v 16.850204 5.405885 11.062592
v 16.778282 5.405885 11.283945
v 16.850204 5.405885 11.505300
v 17.561850 5.346239 11.283945
v 17.247225 5.512866 10.999709
v 17.062515 5.512866 10.999709
v 17.247225 5.512866 11.568181
v 17.396656 5.512866 11.459613
v 17.453735 5.512866 11.283945
v 16.951378 5.560202 11.136101
v 16.903341 5.560202 11.283945
v 16.951378 5.560202 11.431789
v 17.062515 5.512866 11.568181
v 17.310108 5.590592 11.171160
v 17.035263 5.620984 11.245082
v 17.080948 5.620984 11.385690
v 17.228792 5.620984 11.385690
v 17.154871 4.786078 11.283945
v 17.154871 5.641928 11.283945
vt 0.108934 0.335665
vt 0.108934 0.239578
vt 0.196484 0.355442
vt 0.049880 0.239578
vt 0.196484 0.239578
vt 0.196484 0.427050
vt 0.064231 0.169766
vt 0.137099 0.135055
vt 0.318310 0.344100
vt 0.290146 0.422347
vt 0.227704 0.120808
vt 0.318310 0.239578
vt 0.137099 0.070457
vt 0.391178 0.309389
vt 0.258925 0.052106
vt 0.318310 0.135055
vt 0.391178 0.239578
vt 0.391178 0.169766
vt 0.476066 0.352535
vt 0.397385 0.239578
vt 0.507287 0.239578
vt 0.397385 0.322528
vt 0.397385 0.156628
vt 0.569728 0.355442
vt 0.447901 0.408699
vt 0.507287 0.123714
vt 0.600949 0.239578
vt 0.569728 0.427050
vt 0.476066 0.056809
vt 0.679629 0.322528
vt 0.679629 0.373793
vt 0.397385 0.105363
vt 0.569728 0.052106
vt 0.629113 0.135055
vt 0.679629 0.239578
vt 0.716331 0.186321
vt 0.679629 0.105363
vt 0.880452 0.530306
vt 0.766282 0.613256
vt 0.809891 0.479041
vt 0.907404 0.613256
vt 0.722672 0.479041
vt 0.880452 0.696205
vt 0.675676 0.613256
vt 0.825667 0.430486
vt 0.802983 0.726213
vt 0.738284 0.699427
vt 0.634029 0.517168
vt 0.821232 0.782377
vt 0.670194 0.683067
vt 0.711330 0.782377
vt 0.622419 0.717778
vt 0.519624 0.698916
vt 0.432405 0.698916
vt 0.549317 0.617958
vt 0.416629 0.747470
vt 0.419537 0.583052
vt 0.332152 0.669224
vt 0.379927 0.634513
vt 0.476015 0.564701
vt 0.357244 0.564701
vt 0.441108 0.516658
vt 0.510920 0.516658
vt 0.379927 0.494890
vt 0.617137 0.564701
vt 0.432405 0.430486
vt 0.519624 0.430486
vt 0.590185 0.481752
vt 0.332152 0.460178
vt 0.242393 0.634049
vt 0.139399 0.712730
vt 0.122095 0.602829
vt 0.050755 0.690378
vt 0.243921 0.540388
vt 0.123623 0.509167
vt 0.226617 0.430486
vt 0.326870 0.481002
vt 0.138791 0.716166
vt 0.248693 0.716166
vt 0.132829 0.837993
vt 0.254656 0.837993
vt 0.150133 0.947894
vt 0.237352 0.947894
vt 0.049880 0.897378
vt 0.880452 0.530306
vt 0.766282 0.613256
vt 0.809891 0.479041
vt 0.722672 0.479041
vt 0.675676 0.613256
vt 0.634029 0.517168
vt 0.738284 0.699427
vt 0.670194 0.683067
vt 0.802983 0.726213
vt 0.880452 0.696205
vt 0.907404 0.613256
vt 0.108934 0.335665
vt 0.049880 0.239578
vt 0.108934 0.239578
vt 0.064231 0.169766
vt 0.137099 0.135055
vt 0.711330 0.782377
vt 0.622419 0.717778
vt 0.821232 0.782377
vt 0.397385 0.156628
vt 0.476066 0.056809
vt 0.507287 0.123714
vt 0.397385 0.105363
vt 0.825667 0.430486
vt 0.242393 0.634049
vt 0.139399 0.712730
vt 0.122095 0.602829
vt 0.050755 0.690378
vt 0.196484 0.427050
vt 0.196484 0.355442
vt 0.196484 0.239578
vt 0.447901 0.408699
vt 0.397385 0.322528
vt 0.476066 0.352535
vt 0.397385 0.239578
vt 0.507287 0.239578
vt 0.569728 0.052106
vt 0.243921 0.540388
vt 0.227704 0.120808
vt 0.137099 0.070457
vt 0.258925 0.052106
vt 0.138791 0.716166
vt 0.248693 0.716166
vt 0.132829 0.837993
vt 0.254656 0.837993
vt 0.569728 0.427050
vt 0.569728 0.355442
vt 0.629113 0.135055
vt 0.123623 0.509167
vt 0.290146 0.422347
vt 0.318310 0.344100
vt 0.318310 0.239578
vt 0.318310 0.135055
vt 0.600949 0.239578
vt 0.326870 0.481002
vt 0.226617 0.430486
vt 0.519624 0.698916
vt 0.416629 0.747470
vt 0.432405 0.698916
vt 0.332152 0.669224
vt 0.049880 0.897378
vt 0.150133 0.947894
vt 0.237352 0.947894
vt 0.679629 0.373793
vt 0.679629 0.322528
vt 0.679629 0.239578
vt 0.679629 0.105363
vt 0.716331 0.186321
vt 0.379927 0.634513
vt 0.391178 0.309389
vt 0.391178 0.239578
vt 0.391178 0.169766
vt 0.332152 0.460178
vt 0.432405 0.430486
vt 0.379927 0.494890
vt 0.549317 0.617958
vt 0.419537 0.583052
vt 0.357244 0.564701
vt 0.441108 0.516658
vt 0.519624 0.430486
vt 0.510920 0.516658
vt 0.590185 0.481752
vt 0.617137 0.564701
vt 0.476015 0.564701
vn 0.470291 -0.874712 -0.117071
vn -0.165848 -0.945033 -0.281794
vn 0.300748 -0.797863 -0.522460
vn 0.064697 -0.591703 -0.803556
vn -0.445963 -0.690560 -0.569424
vn -0.276990 -0.323239 -0.904872
vn -0.665731 -0.743639 0.061670
vn -0.837415 -0.522335 -0.160942
vn -0.444971 -0.830182 0.335856
vn -0.064385 -0.902267 0.426344
vn 0.295293 -0.925551 0.236974
vn -0.736023 -0.192618 -0.648975
vn -0.983505 -0.126794 -0.129005
vn -0.870389 -0.245409 0.426846
vn -0.500601 -0.419346 0.757329
vn 0.708681 -0.394087 -0.585207
vn 0.891317 -0.453026 0.017903
vn 0.338082 -0.069808 -0.938524
vn -0.230516 0.232345 -0.944922
vn -0.709533 0.302812 -0.636292
vn 0.097550 -0.550698 0.828985
vn 0.641970 -0.558585 0.525222
vn 0.885340 0.067780 -0.459978
vn -0.953430 0.298912 -0.040279
vn -0.768879 0.228992 0.596982
vn -0.362846 0.037659 0.931088
vn 0.230633 -0.090798 0.968795
vn 0.989544 0.097936 0.105881
vn 0.457356 0.376737 -0.805540
vn -0.112341 0.611512 -0.783220
vn -0.552573 0.675855 -0.487732
vn -0.747024 0.657893 0.095559
vn 0.761584 -0.088658 0.641974
vn 0.821581 0.518788 -0.236356
vn 0.498098 0.760395 -0.416772
vn -0.463407 0.642932 0.609830
vn -0.130325 0.478641 0.868285
vn 0.321938 0.358645 0.876202
vn 0.714035 0.405873 0.570456
vn 0.693593 0.695771 0.186632
vn 0.108707 0.896103 -0.430327
vn -0.289442 0.934515 -0.207134
vn -0.409110 0.896680 0.169098
vn 0.315352 0.947066 -0.060156
vn -0.077531 0.915882 0.393889
vn 0.272409 0.759031 0.591326
vn 0.408778 0.896315 0.171812
vn 0.585226 -0.708627 -0.394154
vn 0.062020 -0.992334 -0.106893
vn 0.192587 -0.782050 -0.592713
vn -0.219966 -0.724221 -0.653543
vn -0.403475 -0.903571 -0.144108
vn -0.621877 -0.595119 -0.509020
vn -0.158912 -0.863441 0.478766
vn -0.496270 -0.759424 0.420703
vn 0.194469 -0.816078 0.544242
vn 0.544804 -0.754354 0.366250
vn 0.693643 -0.720232 -0.011183
vn -0.840544 -0.541492 -0.016511
vn -0.726476 -0.425312 0.539762
vn -0.267622 -0.370506 0.889440
vn 0.257374 -0.348946 0.901108
vn 0.294077 -0.307165 -0.905079
vn 0.808545 -0.166037 -0.564523
vn -0.300800 -0.194722 -0.933597
vn -0.818424 -0.075370 -0.569650
vn -0.997213 -0.070632 -0.024040
vn 0.772130 -0.285628 0.567655
vn 0.976983 -0.212664 -0.016671
vn 0.323854 0.201703 -0.924356
vn -0.809020 -0.000003 0.587781
vn -0.268560 0.139647 0.953087
vn 0.290679 0.156101 0.944001
vn 0.780599 0.212666 0.587740
vn 0.727479 0.394643 -0.561276
vn -0.301273 0.285634 -0.909752
vn -0.777473 0.348949 -0.523231
vn -0.934491 0.355756 -0.012785
vn -0.713798 0.424181 0.557282
vn 0.958325 0.285630 -0.005401
vn 0.246911 0.656466 -0.712803
vn -0.179885 0.746774 -0.640289
vn -0.197708 0.613275 0.764725
vn 0.254343 0.616216 0.745377
vn 0.623305 0.633790 0.458041
vn 0.698879 0.714652 -0.028989
vn 0.345958 0.886307 -0.307852
vn -0.513585 0.760134 -0.398028
vn -0.674836 0.737354 0.030099
vn -0.518717 0.758713 0.394067
vn -0.163149 0.954313 -0.250336
vn -0.155813 0.923672 0.350075
vn 0.268630 0.923643 0.273354
vn 0.061490 0.989019 -0.134389
s 1
g cocos
usemtl textura_coco1
f 3/38/1 46/39/2 4/40/3
f 46/39/2 5/42/4 4/40/3
f 46/39/2 1/44/5 5/42/4
f 5/42/4 1/44/5 6/48/6
f 1/44/5 2/47/7 7/50/8
f 2/47/7 46/39/2 8/46/9
f 8/46/9 46/39/2 9/43/10
f 9/43/10 46/39/2 10/41/11
f 10/41/11 46/39/2 3/38/1
f 6/1/6 1/4/5 11/2/12
f 1/4/5 7/7/8 11/2/12
f 11/2/12 7/7/8 12/8/13
f 7/50/8 13/51/14 12/52/13
f 7/50/8 2/47/7 13/51/14
f 2/47/7 8/46/9 13/51/14
f 13/51/14 8/46/9 14/49/15
f 8/46/9 9/43/10 14/49/15
f 3/23/1 16/29/16 15/26/17
f 3/23/1 4/32/3 16/29/16
f 4/40/3 5/42/4 16/45/16
f 16/70/16 5/71/4 17/72/18
f 5/71/4 6/73/6 17/72/18
f 17/6/18 6/1/6 18/3/19
f 6/1/6 11/2/12 18/3/19
f 18/3/19 11/2/12 19/5/20
f 11/2/12 12/8/13 19/5/20
f 14/25/15 9/22/10 20/19/21
f 9/22/10 10/20/11 20/19/21
f 20/19/21 10/20/11 21/21/22
f 10/20/11 3/23/1 21/21/22
f 21/21/22 3/23/1 15/26/17
f 15/26/17 16/29/16 22/33/23
f 16/70/16 17/72/18 22/74/23
f 19/5/20 12/8/13 23/11/24
f 12/8/13 13/13/14 23/11/24
f 23/11/24 13/13/14 24/15/25
f 13/78/14 14/79/15 24/80/25
f 24/80/25 14/79/15 25/81/26
f 14/25/15 20/19/21 25/28/26
f 25/28/26 20/19/21 26/24/27
f 20/19/21 21/21/22 26/24/27
f 15/26/17 22/33/23 27/34/28
f 22/74/23 17/72/18 28/75/29
f 17/6/18 18/3/19 28/10/29
f 28/10/29 18/3/19 29/9/30
f 18/3/19 19/5/20 29/9/30
f 29/9/30 19/5/20 30/12/31
f 19/5/20 23/11/24 30/12/31
f 30/12/31 23/11/24 31/16/32
f 23/11/24 24/15/25 31/16/32
f 26/24/27 21/21/22 32/27/33
f 21/21/22 15/26/17 32/27/33
f 32/27/33 15/26/17 27/34/28
f 27/77/28 22/74/23 33/76/34
f 22/74/23 28/75/29 33/76/34
f 33/53/34 28/56/29 34/54/35
f 28/56/29 29/58/30 34/54/35
f 31/84/32 24/80/25 41/82/36
f 24/80/25 25/81/26 41/82/36
f 41/82/36 25/81/26 35/83/37
f 25/28/26 26/24/27 35/31/37
f 35/31/37 26/24/27 36/30/38
f 26/24/27 32/27/33 36/30/38
f 36/30/38 32/27/33 37/35/39
f 32/27/33 27/34/28 37/35/39
f 27/34/28 33/37/34 42/36/40
f 34/54/35 29/58/30 38/59/41
f 29/9/30 30/12/31 38/14/41
f 38/14/41 30/12/31 39/17/42
f 30/12/31 31/16/32 39/17/42
f 39/17/42 31/16/32 40/18/43
f 31/69/32 41/66/36 40/64/43
f 37/35/39 27/34/28 42/36/40
f 33/53/34 34/54/35 42/55/40
f 42/55/40 34/54/35 43/57/44
f 34/54/35 38/59/41 43/57/44
f 38/59/41 39/61/42 43/57/44
f 39/61/42 40/64/43 43/57/44
f 43/57/44 40/64/43 44/62/45
f 40/64/43 41/66/36 44/62/45
f 41/66/36 35/67/37 44/62/45
f 44/62/45 35/67/37 45/63/46
f 35/67/37 36/68/38 45/63/46
f 36/68/38 37/65/39 45/63/46
f 45/63/46 37/65/39 42/55/40
f 2/47/7 1/44/5 46/39/2
f 42/55/40 43/57/44 47/60/47
f 43/57/44 44/62/45 47/60/47
f 44/62/45 45/63/46 47/60/47
f 45/63/46 42/55/40 47/60/47
s 2
f 50/85/48 93/86/49 51/87/50
f 93/86/49 52/88/51 51/87/50
f 93/86/49 48/89/52 52/88/51
f 52/88/51 48/89/52 53/90/53
f 48/89/52 49/91/54 54/92/55
f 49/91/54 93/86/49 55/93/56
f 55/93/56 93/86/49 56/94/57
f 56/94/57 93/86/49 57/95/58
f 57/95/58 93/86/49 50/85/48
f 53/96/53 48/97/52 58/98/59
f 48/97/52 54/99/55 58/98/59
f 58/98/59 54/99/55 59/100/60
f 54/92/55 60/101/61 59/102/60
f 54/92/55 49/91/54 60/101/61
f 49/91/54 55/93/56 60/101/61
f 60/101/61 55/93/56 61/103/62
f 55/93/56 56/94/57 61/103/62
f 50/104/48 63/105/63 62/106/64
f 50/104/48 51/107/50 63/105/63
f 51/87/50 52/88/51 63/108/63
f 63/109/63 52/110/51 64/111/65
f 52/110/51 53/112/53 64/111/65
f 64/113/65 53/96/53 65/114/66
f 53/96/53 58/98/59 65/114/66
f 65/114/66 58/98/59 66/115/67
f 58/98/59 59/100/60 66/115/67
f 61/116/62 56/117/57 67/118/68
f 56/117/57 57/119/58 67/118/68
f 67/118/68 57/119/58 68/120/69
f 57/119/58 50/104/48 68/120/69
f 68/120/69 50/104/48 62/106/64
f 62/106/64 63/105/63 69/121/70
f 63/109/63 64/111/65 69/122/70
f 66/115/67 59/100/60 70/123/71
f 59/100/60 60/124/61 70/123/71
f 70/123/71 60/124/61 71/125/72
f 60/126/61 61/127/62 71/128/72
f 71/128/72 61/127/62 72/129/73
f 61/116/62 67/118/68 72/130/73
f 72/130/73 67/118/68 73/131/74
f 67/118/68 68/120/69 73/131/74
f 62/106/64 69/121/70 74/132/75
f 69/122/70 64/111/65 75/133/76
f 64/113/65 65/114/66 75/134/76
f 75/134/76 65/114/66 76/135/77
f 65/114/66 66/115/67 76/135/77
f 76/135/77 66/115/67 77/136/78
f 66/115/67 70/123/71 77/136/78
f 77/136/78 70/123/71 78/137/79
f 70/123/71 71/125/72 78/137/79
f 73/131/74 68/120/69 79/138/80
f 68/120/69 62/106/64 79/138/80
f 79/138/80 62/106/64 74/132/75
f 74/139/75 69/122/70 80/140/81
f 69/122/70 75/133/76 80/140/81
f 80/141/81 75/142/76 81/143/82
f 75/142/76 76/144/77 81/143/82
f 78/145/79 71/128/72 88/146/83
f 71/128/72 72/129/73 88/146/83
f 88/146/83 72/129/73 82/147/84
f 72/130/73 73/131/74 82/148/84
f 82/148/84 73/131/74 83/149/85
f 73/131/74 79/138/80 83/149/85
f 83/149/85 79/138/80 84/150/86
f 79/138/80 74/132/75 84/150/86
f 74/132/75 80/151/81 89/152/87
f 81/143/82 76/144/77 85/153/88
f 76/135/77 77/136/78 85/154/88
f 85/154/88 77/136/78 86/155/89
f 77/136/78 78/137/79 86/155/89
f 86/155/89 78/137/79 87/156/90
f 78/157/79 88/158/83 87/159/90
f 84/150/86 74/132/75 89/152/87
f 80/141/81 81/143/82 89/160/87
f 89/160/87 81/143/82 90/161/91
f 81/143/82 85/153/88 90/161/91
f 85/153/88 86/162/89 90/161/91
f 86/162/89 87/159/90 90/161/91
f 90/161/91 87/159/90 91/163/92
f 87/159/90 88/158/83 91/163/92
f 88/158/83 82/164/84 91/163/92
f 91/163/92 82/164/84 92/165/93
f 82/164/84 83/166/85 92/165/93
f 83/166/85 84/167/86 92/165/93
f 92/165/93 84/167/86 89/160/87
f 49/91/54 48/89/52 93/86/49
f 89/160/87 90/161/91 94/168/94
f 90/161/91 91/163/92 94/168/94
f 91/163/92 92/165/93 94/168/94
f 92/165/93 89/160/87 94/168/94
