# Blender 4.2.3 LTS
# www.blender.org
mtllib table.mtl
o s.001
v 6.716681 1.927133 -1.587134
v 6.716681 1.927133 -1.587134
v 6.716681 1.927133 -1.587134
v 6.716681 1.927133 -1.587134
v 6.704572 1.926455 -1.596692
v 6.704572 1.926455 -1.596692
v 6.705684 1.936643 -1.584307
v 6.717959 1.810566 -1.584112
v 6.717959 1.810566 -1.584112
v 6.717959 1.810566 -1.584112
v 6.717251 1.925136 1.588016
v 6.717251 1.925136 1.588016
v 6.717251 1.925136 1.588016
v 6.717251 1.925136 1.588016
v 6.708957 1.936695 1.582500
v 6.708957 1.936695 1.582500
v 6.704713 1.927584 1.596103
v 6.704713 1.927584 1.596103
v 6.717071 1.811152 1.587505
v 6.717071 1.811152 1.587505
v 6.717071 1.811152 1.587505
v 6.704076 1.813176 1.597057
v 6.707593 1.801866 1.588384
v 6.707593 1.801866 1.588384
v 6.707593 1.801866 1.588384
v -6.717243 1.927399 -1.584633
v -6.717243 1.927399 -1.584633
v -6.704558 1.810626 -1.596675
v -6.704558 1.810626 -1.596675
v -6.708263 1.800901 -1.584276
v -6.708263 1.800901 -1.584276
v -6.717454 1.811226 -1.586679
v -6.717454 1.811226 -1.586679
v -6.717454 1.811226 -1.586679
v -6.704076 1.923939 1.597057
v -6.717289 1.925479 1.587499
v -6.717289 1.925479 1.587499
v -6.717289 1.925479 1.587499
v -6.703610 1.933183 1.591181
v -6.703610 1.933183 1.591181
v -6.709215 1.936134 1.583806
v -6.709215 1.936134 1.583806
v -6.716774 1.809426 1.587106
v -6.716774 1.809426 1.587106
v -6.716774 1.809426 1.587106
v 6.705060 1.800107 -1.584108
v 6.709156 1.811644 -1.595892
v 6.709156 1.811644 -1.595892
v 6.709156 1.811644 -1.595892
v 6.703588 1.806049 -1.593283
v 6.703588 1.806049 -1.593283
v -6.704084 1.800430 1.586639
v -6.704084 1.800430 1.586639
v -6.704329 1.813011 1.596871
v -6.704826 1.937184 -1.583881
v -6.707486 1.928284 -1.595434
v -6.707486 1.928284 -1.595434
v -6.707486 1.928284 -1.595434
vn 0.3129 -0.9115 -0.2669
vn -0.2628 -0.8824 0.3902
vn -0.3700 -0.8787 -0.3015
vn 0.8443 0.3014 0.4431
vn 0.8501 -0.3371 0.4046
vn 0.8736 -0.3958 -0.2831
vn -0.2816 0.2543 0.9252
vn -0.2796 -0.2930 0.9143
vn 0.2615 -0.2708 0.9265
vn -0.2853 0.9174 -0.2776
vn 0.4090 0.8753 0.2579
vn 0.3040 0.9045 -0.2990
vn 0.2757 0.3836 -0.8814
vn 0.4442 -0.3100 -0.8406
vn -0.2729 -0.3849 -0.8817
vn -0.8478 0.3072 0.4322
vn -0.8553 -0.3283 -0.4009
vn -0.8159 -0.4159 0.4017
vn 0.8308 0.3912 -0.3959
vn -0.3684 0.4141 -0.8324
vn -0.8658 0.3946 -0.3077
vn -0.8552 -0.3283 -0.4010
vn -0.4306 0.8678 0.2481
vn -0.1956 0.7273 0.6578
vn 0.2519 0.4314 0.8663
vn 0.3492 -0.8380 0.4193
vn 0.1703 -0.6762 -0.7168
vn -0.1956 0.7272 0.6579
vn -0.8553 -0.3282 -0.4010
vt 0.041698 0.042460
vt 0.961540 0.972027
vt 0.041623 0.972370
vt 0.612656 0.417823
vt 0.613126 0.475632
vt 0.315481 0.473365
vt 0.598838 0.999712
vt 0.401804 0.999708
vt 0.401162 0.750288
vt -0.000488 0.649957
vt 1.005921 0.369682
vt 1.006187 0.652359
vt 0.605466 0.499710
vt 0.399593 0.499836
vt 0.394817 0.250288
vt 0.617288 0.689717
vt 0.817237 0.373355
vt 0.654999 0.700029
vt 1.007264 0.652573
vt 1.006073 0.653667
vt 0.037378 0.042001
vt 0.041598 0.041442
vt -0.000791 0.651305
vt -0.001606 0.650004
vt 0.039719 0.973107
vt 0.037378 0.972004
vt -0.001547 0.367316
vt -0.002247 0.366718
vt -0.001036 0.366000
vt 0.396941 1.000000
vt 0.375000 0.999704
vt 0.963622 0.972678
vt 0.609146 0.499937
vt 0.603059 0.750000
vt 0.607969 0.750293
vt 0.779383 0.363399
vt 0.780051 0.362274
vt 0.029019 0.430857
vt 0.311132 0.499170
vt 0.308496 0.505125
vt 0.037378 0.042563
vt 0.375000 0.499699
vt 1.005427 0.368362
vt 0.375000 0.750300
vt 0.821286 0.375238
vt 0.962298 0.042335
vt 0.608554 0.250218
vt 1.006016 0.368363
vt 0.390854 0.750063
vt 0.625000 0.999699
vt 0.609146 0.999937
vt 0.026830 0.430933
vt 0.053524 0.373360
vt 0.390854 0.250063
vt 0.611358 0.411877
vt 0.315173 0.419712
vt 0.613333 0.687666
vt 0.333674 0.448251
s 1
usemtl WOOD
f 46/1/1 53/2/2 30/3/3
f 13/4/4 21/5/5 10/6/6
f 35/7/7 54/8/8 22/9/9
f 55/10/10 16/11/11 7/12/12
f 5/13/13 49/14/14 29/15/15
f 37/16/16 34/17/17 44/18/18
f 7/12/12 4/19/19 6/20/13
f 46/1/1 48/21/14 9/22/6
f 55/10/10 58/23/20 27/24/21
f 30/3/3 32/25/22 28/26/15
f 42/27/23 38/28/16 40/29/24
f 54/8/8 43/30/18 52/31/2
f 53/2/2 45/32/18 30/3/3
f 49/14/14 5/13/13 3/33/19
f 35/7/7 43/30/18 54/8/8
f 22/9/9 12/34/4 17/35/25
f 34/17/17 26/36/21 57/37/20
f 8/38/6 19/39/5 23/40/26
f 30/3/3 50/41/27 46/1/1
f 29/15/15 49/14/14 51/42/27
f 42/27/23 18/43/25 16/11/11
f 24/44/26 54/8/8 52/31/2
f 7/12/12 58/23/20 55/10/10
f 44/18/18 34/17/17 31/45/3
f 37/16/16 26/36/21 34/17/17
f 46/1/1 25/46/26 53/2/2
f 55/10/10 42/27/23 16/11/11
f 17/35/25 35/7/7 22/9/9
f 56/47/20 5/13/13 29/15/15
f 46/1/1 50/41/27 48/21/14
f 16/11/11 18/43/25 14/48/4
f 22/9/9 24/44/26 20/49/5
f 35/7/7 39/50/28 36/51/16
f 8/38/6 47/52/14 1/53/19
f 35/7/7 36/51/16 43/30/18
f 22/9/9 20/49/5 12/34/4
f 29/15/15 33/54/29 56/47/20
f 15/55/11 13/4/4 2/56/19
f 55/10/10 27/24/21 42/27/23
f 46/1/1 9/22/6 25/46/26
f 30/3/3 28/26/15 50/41/27
f 42/27/23 40/29/24 18/43/25
f 39/50/28 35/7/7 17/35/25
f 24/44/26 22/9/9 54/8/8
f 7/12/12 6/20/13 58/23/20
f 7/12/12 16/11/11 4/19/19
f 41/57/23 26/36/21 37/16/16
f 1/53/19 11/58/4 8/38/6
o r.001
v -5.459558 -0.227548 1.376413
v -5.459558 -0.227548 1.376413
v -5.459558 -0.227548 1.376413
v -5.459558 0.227548 1.097188
v -5.459558 0.227548 1.097188
v -5.459558 0.227548 1.097188
v -5.459558 1.807430 1.376413
v -5.459558 1.807430 1.376413
v -5.459558 1.807430 1.376413
v -5.459558 1.495906 1.097188
v -5.459558 1.495906 1.097188
v -5.459558 1.495906 1.097188
v -5.459558 1.807430 0.000000
v -5.459558 1.807430 0.000000
v -5.459558 1.807430 0.000000
v -5.459558 1.495906 0.000000
v -5.459558 1.495906 0.000000
v -5.459558 1.495906 0.000000
v -5.459558 -0.227548 -1.376413
v -5.459558 -0.227548 -1.376413
v -5.459558 -0.227548 -1.376413
v -5.459558 0.227548 -1.097188
v -5.459558 0.227548 -1.097188
v -5.459558 0.227548 -1.097188
v -5.459558 1.807430 -1.376413
v -5.459558 1.807430 -1.376413
v -5.459558 1.807430 -1.376413
v -5.459558 1.807430 -1.097188
v -5.459558 1.807430 -1.097188
v -5.459558 1.495906 -1.097188
v -5.459558 1.495906 -1.097188
v -5.459558 1.495906 -1.097188
v -5.004462 -0.227548 1.376413
v -5.004462 -0.227548 1.376413
v -5.004462 -0.227548 1.376413
v -5.004462 0.227548 1.097188
v -5.004462 0.227548 1.097188
v -5.004462 0.227548 1.097188
v -5.004462 1.807430 1.376413
v -5.004462 1.807430 1.376413
v -5.004462 1.807430 1.376413
v -5.004462 1.495906 1.097188
v -5.004462 1.495906 1.097188
v -5.004462 1.495906 1.097188
v -5.004462 1.807430 -0.000000
v -5.004462 1.807430 -0.000000
v -5.004462 1.807430 -0.000000
v -5.004462 1.495906 -0.000000
v -5.004462 1.495906 -0.000000
v -5.004462 1.495906 -0.000000
v -5.004462 -0.227548 -1.376413
v -5.004462 -0.227548 -1.376413
v -5.004462 -0.227548 -1.376413
v -5.004462 0.227548 -1.376413
v -5.004462 0.227548 -1.376413
v -5.004462 0.227548 -1.097188
v -5.004462 0.227548 -1.097188
v -5.004462 0.227548 -1.097188
v -5.004462 1.807430 -1.376413
v -5.004462 1.807430 -1.376413
v -5.004462 1.807430 -1.376413
v -5.004462 1.495906 -1.097188
v -5.004462 1.495906 -1.097188
v -5.004462 1.495906 -1.097188
vn -0.0000 1.0000 -0.0000
vn -1.0000 -0.0000 -0.0000
vn -0.0000 -0.0000 -1.0000
vn -0.0000 -1.0000 -0.0000
vn 1.0000 -0.0000 -0.0000
vn -0.0000 -0.0000 1.0000
vt 0.091382 0.552759
vt 0.091382 0.993384
vt 0.000000 0.993384
vt -0.000000 0.552759
vt 0.000000 0.552759
vt 0.000000 0.276380
vt 0.062553 0.276380
vt 0.062553 0.496692
vt 0.000000 0.056068
vt 0.000000 0.000000
vt 0.408618 0.000000
vt 0.062553 0.056068
vt 0.408618 0.552759
vt 0.317236 0.496692
vt 0.317236 0.056068
vt 0.610846 0.644141
vt 0.610846 0.552759
vt 0.673399 0.552759
vt 0.673399 0.644141
vt 0.365528 0.961377
vt 0.274146 0.961377
vt 0.274146 0.552759
vt 0.365528 0.552759
vt 0.365528 0.869995
vt 0.182764 0.993384
vt 0.091382 0.773071
vt 0.182764 0.773071
vt 0.471171 0.496692
vt 0.725854 0.496692
vt 0.725854 0.552759
vt 0.408618 0.552759
vt 0.408618 0.276380
vt 0.471171 0.276380
vt 0.091382 0.552759
vt 0.182764 0.552759
vt 0.365528 0.552759
vt 0.456910 0.552759
vt 0.456910 0.807442
vt 0.365528 0.807442
vt 0.548292 0.807442
vt 0.548292 0.552759
vt 0.182764 0.961377
vt 0.182764 0.552759
vt 1.000000 0.552759
vt 0.908618 0.552759
vt 0.908618 0.276380
vt 1.000000 0.276380
vt 0.908618 0.000000
vt 0.908618 0.552759
vt 0.817236 0.552759
vt 0.817236 0.000000
vt 0.908618 0.000000
vt 1.000000 0.000000
vt 1.000000 0.056068
vt 0.817236 0.552759
vt 0.408618 0.000000
vt 0.471171 0.056068
vt 0.725854 0.056068
s 0
usemtl BLACK_METAL
f 95/59/30 115/60/30 81/61/30
f 95/59/30 81/61/30 63/62/30
f 65/63/31 71/64/31 74/65/31
f 65/63/31 74/65/31 68/66/31
f 86/67/31 83/68/31 77/69/31
f 88/70/31 86/67/31 77/69/31
f 59/71/31 65/63/31 68/66/31
f 59/71/31 68/66/31 62/72/31
f 80/73/31 88/70/31 77/69/31
f 59/71/31 62/72/31 80/73/31
f 77/69/31 59/71/31 80/73/31
f 73/74/32 105/75/32 108/76/32
f 73/74/32 108/76/32 76/77/32
f 111/78/32 79/79/32 85/80/32
f 85/80/32 119/81/32 113/82/32
f 85/80/32 113/82/32 111/78/32
f 89/83/33 121/60/33 107/84/33
f 89/83/33 107/84/33 75/85/33
f 120/86/34 114/87/34 112/88/34
f 117/89/34 103/90/34 106/91/34
f 120/86/34 112/88/34 117/89/34
f 117/89/34 106/91/34 120/86/34
f 75/85/33 107/84/33 101/92/33
f 75/85/33 101/92/33 69/93/33
f 70/94/32 102/95/32 96/96/32
f 70/94/32 96/96/32 64/97/32
f 82/98/35 116/96/35 122/95/35
f 82/98/35 122/95/35 90/99/35
f 88/70/31 74/65/31 71/64/31
f 88/70/31 71/64/31 86/67/31
f 93/100/35 99/101/35 67/80/35
f 93/100/35 67/80/35 61/79/35
f 66/102/30 98/103/30 104/104/30
f 66/102/30 104/104/30 72/105/30
f 110/106/33 92/107/33 60/108/33
f 110/106/33 60/108/33 78/109/33
f 104/104/30 118/110/30 84/111/30
f 87/112/30 72/105/30 104/104/30
f 84/111/30 87/112/30 104/104/30
f 91/109/34 109/113/34 112/88/34
f 91/109/34 112/88/34 114/87/34
f 106/91/34 103/90/34 97/114/34
f 100/115/34 106/91/34 97/114/34
f 91/109/34 114/87/34 94/116/34
f 94/116/34 100/115/34 97/114/34
f 91/109/34 94/116/34 97/114/34
o l.001
v 5.004462 -0.227548 1.376413
v 5.004462 -0.227548 1.376413
v 5.004462 -0.227548 1.376413
v 5.004462 0.227548 1.097188
v 5.004462 0.227548 1.097188
v 5.004462 0.227548 1.097188
v 5.004462 1.807430 1.376413
v 5.004462 1.807430 1.376413
v 5.004462 1.807430 1.376413
v 5.004462 1.495906 1.097188
v 5.004462 1.495906 1.097188
v 5.004462 1.495906 1.097188
v 5.004462 1.807430 0.000000
v 5.004462 1.807430 0.000000
v 5.004462 1.807430 0.000000
v 5.004462 1.495906 0.000000
v 5.004462 1.495906 0.000000
v 5.004462 1.495906 0.000000
v 5.004462 -0.227548 -1.376413
v 5.004462 -0.227548 -1.376413
v 5.004462 -0.227548 -1.376413
v 5.004462 0.227548 -1.097188
v 5.004462 0.227548 -1.097188
v 5.004462 0.227548 -1.097188
v 5.004462 1.807430 -1.376413
v 5.004462 1.807430 -1.376413
v 5.004462 1.807430 -1.376413
v 5.004462 1.807430 -1.097188
v 5.004462 1.807430 -1.097188
v 5.004462 1.495906 -1.097188
v 5.004462 1.495906 -1.097188
v 5.004462 1.495906 -1.097188
v 5.459558 -0.227548 1.376413
v 5.459558 -0.227548 1.376413
v 5.459558 -0.227548 1.376413
v 5.459558 0.227548 1.097188
v 5.459558 0.227548 1.097188
v 5.459558 0.227548 1.097188
v 5.459558 1.807430 1.376413
v 5.459558 1.807430 1.376413
v 5.459558 1.807430 1.376413
v 5.459558 1.495906 1.097188
v 5.459558 1.495906 1.097188
v 5.459558 1.495906 1.097188
v 5.459558 1.807430 -0.000000
v 5.459558 1.807430 -0.000000
v 5.459558 1.807430 -0.000000
v 5.459558 1.495906 -0.000000
v 5.459558 1.495906 -0.000000
v 5.459558 1.495906 -0.000000
v 5.459558 -0.227548 -1.376413
v 5.459558 -0.227548 -1.376413
v 5.459558 -0.227548 -1.376413
v 5.459558 0.227548 -1.376413
v 5.459558 0.227548 -1.376413
v 5.459558 0.227548 -1.097188
v 5.459558 0.227548 -1.097188
v 5.459558 0.227548 -1.097188
v 5.459558 1.807430 -1.376413
v 5.459558 1.807430 -1.376413
v 5.459558 1.807430 -1.376413
v 5.459558 1.495906 -1.097188
v 5.459558 1.495906 -1.097188
v 5.459558 1.495906 -1.097188
vn -0.0000 1.0000 -0.0000
vn -1.0000 -0.0000 -0.0000
vn -0.0000 -0.0000 -1.0000
vn -0.0000 -1.0000 -0.0000
vn 1.0000 -0.0000 -0.0000
vn -0.0000 -0.0000 1.0000
vt 0.091382 0.552759
vt 0.091382 0.993384
vt 0.000000 0.993384
vt -0.000000 0.552759
vt 0.000000 0.552759
vt 0.000000 0.276380
vt 0.062553 0.276380
vt 0.062553 0.496692
vt 0.000000 0.056068
vt 0.000000 0.000000
vt 0.408618 0.000000
vt 0.062553 0.056068
vt 0.408618 0.552759
vt 0.317236 0.496692
vt 0.317236 0.056068
vt 0.548292 0.644141
vt 0.548292 0.552759
vt 0.610846 0.552759
vt 0.610845 0.644141
vt 0.365528 0.961377
vt 0.274146 0.961377
vt 0.274146 0.552759
vt 0.365528 0.552759
vt 0.365528 0.869995
vt 0.182764 0.993384
vt 0.091382 0.773071
vt 0.182764 0.773071
vt 0.471171 0.496692
vt 0.725854 0.496692
vt 0.725854 0.552759
vt 0.408618 0.552759
vt 0.408618 0.276380
vt 0.471171 0.276380
vt 0.091382 0.552759
vt 0.182764 0.552759
vt 0.365528 0.552759
vt 0.456910 0.552759
vt 0.456910 0.807442
vt 0.365528 0.807442
vt 0.548292 0.807442
vt 0.548292 0.552759
vt 0.182764 0.961377
vt 0.182764 0.552759
vt 1.000000 0.552759
vt 0.908618 0.552759
vt 0.908618 0.276380
vt 1.000000 0.276380
vt 0.908618 0.000000
vt 0.908618 0.552759
vt 0.817236 0.552759
vt 0.817236 0.000000
vt 0.908618 0.000000
vt 1.000000 0.000000
vt 1.000000 0.056068
vt 0.817236 0.552759
vt 0.408618 0.000000
vt 0.471171 0.056068
vt 0.725854 0.056068
s 0
usemtl BLACK_METAL
f 159/117/36 179/118/36 145/119/36
f 159/117/36 145/119/36 127/120/36
f 129/121/37 135/122/37 138/123/37
f 129/121/37 138/123/37 132/124/37
f 150/125/37 147/126/37 141/127/37
f 152/128/37 150/125/37 141/127/37
f 123/129/37 129/121/37 132/124/37
f 123/129/37 132/124/37 126/130/37
f 144/131/37 152/128/37 141/127/37
f 123/129/37 126/130/37 144/131/37
f 141/127/37 123/129/37 144/131/37
f 137/132/38 169/133/38 172/134/38
f 137/132/38 172/134/38 140/135/38
f 175/136/38 143/137/38 149/138/38
f 149/138/38 183/139/38 177/140/38
f 149/138/38 177/140/38 175/136/38
f 153/141/39 185/118/39 171/142/39
f 153/141/39 171/142/39 139/143/39
f 184/144/40 178/145/40 176/146/40
f 181/147/40 167/148/40 170/149/40
f 184/144/40 176/146/40 181/147/40
f 181/147/40 170/149/40 184/144/40
f 139/143/39 171/142/39 165/150/39
f 139/143/39 165/150/39 133/151/39
f 134/152/38 166/153/38 160/154/38
f 134/152/38 160/154/38 128/155/38
f 146/156/41 180/154/41 186/153/41
f 146/156/41 186/153/41 154/157/41
f 152/128/37 138/123/37 135/122/37
f 152/128/37 135/122/37 150/125/37
f 157/158/41 163/159/41 131/138/41
f 157/158/41 131/138/41 125/137/41
f 130/160/36 162/161/36 168/162/36
f 130/160/36 168/162/36 136/163/36
f 174/164/39 156/165/39 124/166/39
f 174/164/39 124/166/39 142/167/39
f 168/162/36 182/168/36 148/169/36
f 151/170/36 136/163/36 168/162/36
f 148/169/36 151/170/36 168/162/36
f 155/167/40 173/171/40 176/146/40
f 155/167/40 176/146/40 178/145/40
f 170/149/40 167/148/40 161/172/40
f 164/173/40 170/149/40 161/172/40
f 155/167/40 178/145/40 158/174/40
f 158/174/40 164/173/40 161/172/40
f 155/167/40 158/174/40 161/172/40
