# This file uses centimeters as units for non-parametric coordinates.

mtllib Lasana.mtl
g default
v -0.199574 0.000508 0.282095
v -0.205179 0.031555 0.287700
v 0.205179 0.031555 0.287700
v 0.199574 0.000508 0.282095
v -0.205179 0.042768 0.287700
v -0.199574 0.048372 0.282095
v 0.199574 0.048372 0.282095
v 0.205179 0.042768 0.287700
v -0.199574 0.048372 -0.282095
v -0.205179 0.042768 -0.287700
v 0.199574 0.048372 -0.282095
v 0.205179 0.042768 -0.287700
v -0.205179 0.031555 -0.287700
v -0.199574 0.000508 -0.282095
v 0.199574 0.000508 -0.282095
v 0.205179 0.031555 -0.287700
v -0.176164 0.048758 0.247018
v 0.176165 0.048758 0.247018
v -0.176164 0.068009 0.247018
v 0.176165 0.068009 0.247018
v -0.176164 0.068009 -0.247018
v 0.176165 0.068009 -0.247018
v -0.176164 0.048758 -0.247018
v 0.176165 0.048758 -0.247018
v -0.199574 0.068194 0.282095
v -0.205179 0.073799 0.287700
v 0.205179 0.073799 0.287700
v 0.199574 0.068194 0.282095
v -0.205179 0.085012 0.287700
v -0.199574 0.090617 0.282095
v 0.199574 0.090617 0.282095
v 0.205179 0.085012 0.287700
v -0.199574 0.090617 -0.282095
v -0.205179 0.085012 -0.287700
v 0.199574 0.090617 -0.282095
v 0.205179 0.085012 -0.287700
v -0.205179 0.073799 -0.287700
v -0.199574 0.068194 -0.282095
v 0.199574 0.068194 -0.282095
v 0.205179 0.073799 -0.287700
v -0.176164 0.090810 0.247018
v 0.176165 0.090810 0.247018
v -0.176164 0.110061 0.247018
v 0.176165 0.110061 0.247018
v -0.176164 0.110061 -0.247018
v 0.176165 0.110061 -0.247018
v -0.176164 0.090810 -0.247018
v 0.176165 0.090810 -0.247018
v -0.199574 0.111131 0.282095
v -0.205179 0.116736 0.287700
v 0.205179 0.116736 0.287700
v 0.199574 0.111131 0.282095
v -0.205179 0.127948 0.287700
v -0.199574 0.155081 0.282095
v 0.199574 0.155081 0.282095
v 0.205179 0.127948 0.287700
v -0.199574 0.155081 -0.282095
v -0.205179 0.127948 -0.287700
v 0.199574 0.155081 -0.282095
v 0.205179 0.127948 -0.287700
v -0.205179 0.116736 -0.287700
v -0.199574 0.111131 -0.282095
v 0.199574 0.111131 -0.282095
v 0.205179 0.116736 -0.287700
vt 0.066880 0.955327
vt 0.066880 0.937205
vt 0.067233 0.937205
vt 0.067233 0.955327
vt 0.066703 0.955151
vt 0.066703 0.937381
vt 0.067409 0.955151
vt 0.067409 0.937381
vt 0.052861 0.955327
vt 0.052861 0.937205
vt 0.053214 0.937205
vt 0.053214 0.955327
vt 0.052684 0.937381
vt 0.052684 0.955151
vt 0.053391 0.937381
vt 0.053391 0.955151
vt 0.335643 0.678568
vt 0.468269 0.678568
vt 0.468269 0.930592
vt 0.335643 0.930592
vt 0.333781 0.676064
vt 0.470131 0.676064
vt 0.333781 0.933096
vt 0.470131 0.933096
vt 0.053760 0.937381
vt 0.066331 0.937381
vt 0.066331 0.955151
vt 0.053760 0.955151
vt 0.053583 0.937205
vt 0.066508 0.937205
vt 0.053583 0.955327
vt 0.066508 0.955327
vt 0.236367 0.800383
vt 0.236367 0.669006
vt 0.239957 0.669006
vt 0.239957 0.800383
vt 0.237858 0.932923
vt 0.237858 0.801545
vt 0.241448 0.801545
vt 0.241448 0.932923
vt 0.618495 0.905028
vt 0.618495 0.706108
vt 0.627810 0.706108
vt 0.627810 0.905028
vt 0.646633 0.044649
vt 0.760226 0.044649
vt 0.760226 0.203928
vt 0.646633 0.203928
vt 0.617933 0.906611
vt 0.617933 0.699158
vt 0.628957 0.699158
vt 0.628957 0.906611
vt 0.762020 0.044649
vt 0.875613 0.044649
vt 0.875613 0.203928
vt 0.762020 0.203928
vt 0.618029 0.902788
vt 0.618029 0.696456
vt 0.629209 0.696456
vt 0.629209 0.902788
vt 0.618486 0.907179
vt 0.618486 0.692065
vt 0.628423 0.692065
vt 0.628423 0.907179
vt 0.036137 0.937066
vt 0.036316 0.936887
vt 0.036316 0.955265
vt 0.036137 0.955086
vt 0.037048 0.955265
vt 0.037227 0.955086
vt 0.049976 0.955086
vt 0.050155 0.955265
vt 0.050532 0.955265
vt 0.050353 0.955086
vt 0.050353 0.937066
vt 0.050532 0.936887
vt 0.036674 0.936887
vt 0.036853 0.937066
vt 0.036853 0.955086
vt 0.036674 0.955265
vt 0.333105 0.677126
vt 0.331160 0.674583
vt 0.473579 0.674583
vt 0.471633 0.677126
vt 0.051069 0.955086
vt 0.050890 0.955265
vt 0.050890 0.936887
vt 0.051069 0.937066
vt 0.331160 0.935649
vt 0.333105 0.933106
vt 0.471633 0.933106
vt 0.473579 0.935649
vt 0.037227 0.937066
vt 0.037048 0.936887
vt 0.050155 0.936887
vt 0.049976 0.937066
vt 0.027685 0.821616
vt 0.027685 0.690239
vt 0.031275 0.690239
vt 0.031275 0.821616
vt 0.029176 0.954156
vt 0.029176 0.822778
vt 0.032766 0.822778
vt 0.032766 0.954156
vt 0.617300 0.905334
vt 0.617300 0.707430
vt 0.628114 0.707430
vt 0.628114 0.905334
vt 0.680358 0.727028
vt 0.787256 0.727028
vt 0.787256 0.876921
vt 0.680358 0.876921
vt 0.617436 0.905976
vt 0.617436 0.698931
vt 0.629372 0.698931
vt 0.629372 0.905976
vt 0.788945 0.727028
vt 0.895843 0.727028
vt 0.895843 0.876921
vt 0.788945 0.876921
vt 0.616765 0.905667
vt 0.616765 0.697911
vt 0.629146 0.697911
vt 0.629146 0.905667
vt 0.628252 0.697763
vt 0.628264 0.906549
vt 0.617472 0.906554
vt 0.617460 0.697768
vt 0.273262 0.664872
vt 0.277872 0.662138
vt 0.277872 0.942809
vt 0.273262 0.940075
vt 0.302412 0.952419
vt 0.302796 0.952035
vt 0.330143 0.952035
vt 0.330527 0.952419
vt 0.262363 0.675866
vt 0.267995 0.678366
vt 0.267971 0.930091
vt 0.262339 0.932592
vt 0.287093 0.662138
vt 0.291702 0.664872
vt 0.291702 0.940075
vt 0.287093 0.942809
vt 0.037507 0.664111
vt 0.034769 0.661448
vt 0.235180 0.661448
vt 0.232443 0.664111
vt 0.245467 0.678366
vt 0.251098 0.675865
vt 0.251074 0.932592
vt 0.245443 0.930091
vt 0.034769 0.934910
vt 0.037507 0.932246
vt 0.232443 0.932246
vt 0.235180 0.934910
vt 0.302796 0.913382
vt 0.302412 0.912998
vt 0.330527 0.912998
vt 0.330143 0.913382
vt 0.306554 0.818301
vt 0.306554 0.694235
vt 0.309944 0.694235
vt 0.309944 0.818301
vt 0.307962 0.943464
vt 0.307962 0.819398
vt 0.311352 0.819398
vt 0.311352 0.943464
vn -0.984091 -0.177667 0.000000
vn -0.984091 -0.177667 0.000000
vn -0.984091 -0.177667 0.000000
vn -0.984091 -0.177667 0.000000
vn 0.000000 -0.177656 0.984093
vn 0.000000 -0.177656 0.984093
vn 0.000000 -0.177656 0.984093
vn 0.000000 -0.177656 0.984093
vn 0.984091 -0.177667 0.000000
vn 0.984091 -0.177667 0.000000
vn 0.984091 -0.177667 0.000000
vn 0.984091 -0.177667 0.000000
vn -0.707044 0.707170 0.000000
vn -0.707044 0.707170 0.000000
vn -0.707044 0.707170 0.000000
vn -0.707044 0.707170 0.000000
vn 0.000000 0.707157 0.707057
vn 0.000000 0.707157 0.707057
vn 0.000000 0.707157 0.707057
vn 0.000000 0.707157 0.707057
vn 0.707044 0.707170 0.000000
vn 0.707044 0.707170 0.000000
vn 0.707044 0.707170 0.000000
vn 0.707044 0.707170 0.000000
vn 0.000000 0.707157 -0.707057
vn 0.000000 0.707157 -0.707057
vn 0.000000 0.707157 -0.707057
vn 0.000000 0.707157 -0.707057
vn 0.000000 -0.177656 -0.984093
vn 0.000000 -0.177656 -0.984093
vn 0.000000 -0.177656 -0.984093
vn 0.000000 -0.177656 -0.984093
vn 0.000000 0.000000 1.000000
vn 0.000000 0.000000 1.000000
vn 0.000000 0.000000 1.000000
vn 0.000000 0.000000 1.000000
vn 0.000000 1.000000 0.000000
vn 0.000000 1.000000 0.000000
vn 0.000000 1.000000 0.000000
vn 0.000000 1.000000 0.000000
vn 0.000000 0.000000 -1.000000
vn 0.000000 0.000000 -1.000000
vn 0.000000 0.000000 -1.000000
vn 0.000000 0.000000 -1.000000
vn 0.000000 -1.000000 0.000000
vn 0.000000 -1.000000 0.000000
vn 0.000000 -1.000000 0.000000
vn 0.000000 -1.000000 0.000000
vn 1.000000 0.000000 0.000000
vn 1.000000 0.000000 0.000000
vn 1.000000 0.000000 0.000000
vn 1.000000 0.000000 0.000000
vn -1.000000 0.000000 0.000000
vn -1.000000 0.000000 0.000000
vn -1.000000 0.000000 0.000000
vn -1.000000 0.000000 0.000000
vn 0.000000 0.000000 1.000000
vn 0.000000 0.000000 1.000000
vn 0.000000 0.000000 1.000000
vn 0.000000 0.000000 1.000000
vn 0.000000 1.000000 0.000000
vn 0.000000 1.000000 0.000000
vn 0.000000 1.000000 0.000000
vn 0.000000 1.000000 0.000000
vn 0.000000 0.000000 -1.000000
vn 0.000000 0.000000 -1.000000
vn 0.000000 0.000000 -1.000000
vn 0.000000 0.000000 -1.000000
vn 0.000000 -1.000000 0.000000
vn 0.000000 -1.000000 0.000000
vn 0.000000 -1.000000 0.000000
vn 0.000000 -1.000000 0.000000
vn 1.000000 0.000000 0.000000
vn 1.000000 0.000000 0.000000
vn 1.000000 0.000000 0.000000
vn 1.000000 0.000000 0.000000
vn -1.000000 0.000000 0.000000
vn -1.000000 0.000000 0.000000
vn -1.000000 0.000000 0.000000
vn -1.000000 0.000000 0.000000
vn -0.707104 -0.707110 0.000000
vn -0.707104 -0.707110 0.000000
vn -0.707104 -0.707110 0.000000
vn -0.707104 -0.707110 0.000000
vn 0.000000 -0.707101 0.707113
vn 0.000000 -0.707101 0.707113
vn 0.000000 -0.707101 0.707113
vn 0.000000 -0.707101 0.707113
vn 0.707104 -0.707110 0.000000
vn 0.707104 -0.707110 0.000000
vn 0.707104 -0.707110 0.000000
vn 0.707104 -0.707110 0.000000
vn -0.707074 0.707140 0.000000
vn -0.707074 0.707140 0.000000
vn -0.707074 0.707140 0.000000
vn -0.707074 0.707140 0.000000
vn 0.000000 0.707120 0.707094
vn 0.000000 0.707120 0.707094
vn 0.000000 0.707120 0.707094
vn 0.000000 0.707120 0.707094
vn 0.707074 0.707140 0.000000
vn 0.707074 0.707140 0.000000
vn 0.707074 0.707140 0.000000
vn 0.707074 0.707140 0.000000
vn 0.000000 0.707120 -0.707094
vn 0.000000 0.707120 -0.707094
vn 0.000000 0.707120 -0.707094
vn 0.000000 0.707120 -0.707094
vn 0.000000 -0.707101 -0.707113
vn 0.000000 -0.707101 -0.707113
vn 0.000000 -0.707101 -0.707113
vn 0.000000 -0.707101 -0.707113
vn 0.000000 0.000000 1.000000
vn 0.000000 0.000000 1.000000
vn 0.000000 0.000000 1.000000
vn 0.000000 0.000000 1.000000
vn 0.000000 1.000000 0.000000
vn 0.000000 1.000000 0.000000
vn 0.000000 1.000000 0.000000
vn 0.000000 1.000000 0.000000
vn 0.000000 0.000000 -1.000000
vn 0.000000 0.000000 -1.000000
vn 0.000000 0.000000 -1.000000
vn 0.000000 0.000000 -1.000000
vn 0.000000 -1.000000 0.000000
vn 0.000000 -1.000000 0.000000
vn 0.000000 -1.000000 0.000000
vn 0.000000 -1.000000 0.000000
vn 1.000000 0.000000 0.000000
vn 1.000000 0.000000 0.000000
vn 1.000000 0.000000 0.000000
vn 1.000000 0.000000 0.000000
vn -1.000000 0.000000 0.000000
vn -1.000000 0.000000 0.000000
vn -1.000000 0.000000 0.000000
vn -1.000000 0.000000 0.000000
vn 0.000000 0.000000 1.000000
vn 0.000000 0.000000 1.000000
vn 0.000000 0.000000 1.000000
vn 0.000000 0.000000 1.000000
vn 0.000000 1.000000 0.000000
vn 0.000000 1.000000 0.000000
vn 0.000000 1.000000 0.000000
vn 0.000000 1.000000 0.000000
vn 0.000000 0.000000 -1.000000
vn 0.000000 0.000000 -1.000000
vn 0.000000 0.000000 -1.000000
vn 0.000000 0.000000 -1.000000
vn 0.000000 -1.000000 0.000000
vn 0.000000 -1.000000 0.000000
vn 0.000000 -1.000000 0.000000
vn 0.000000 -1.000000 0.000000
vn 1.000000 0.000000 0.000000
vn 1.000000 0.000000 0.000000
vn 1.000000 0.000000 0.000000
vn 1.000000 0.000000 0.000000
vn -1.000000 0.000000 0.000000
vn -1.000000 0.000000 0.000000
vn -1.000000 0.000000 0.000000
vn -1.000000 0.000000 0.000000
vn -0.707104 -0.707110 0.000000
vn -0.707104 -0.707110 0.000000
vn -0.707104 -0.707110 0.000000
vn -0.707104 -0.707110 0.000000
vn 0.000000 -0.707082 0.707131
vn 0.000000 -0.707082 0.707131
vn 0.000000 -0.707082 0.707131
vn 0.000000 -0.707082 0.707131
vn 0.707104 -0.707110 0.000000
vn 0.707104 -0.707110 0.000000
vn 0.707104 -0.707110 0.000000
vn 0.707104 -0.707110 0.000000
vn -0.979322 0.202310 0.000000
vn -0.979322 0.202310 0.000000
vn -0.979322 0.202310 0.000000
vn -0.979322 0.202310 0.000000
vn 0.000000 0.202301 0.979323
vn 0.000000 0.202301 0.979323
vn 0.000000 0.202301 0.979323
vn 0.000000 0.202301 0.979323
vn 0.979322 0.202310 0.000000
vn 0.979322 0.202310 0.000000
vn 0.979322 0.202310 0.000000
vn 0.979322 0.202310 0.000000
vn 0.000000 0.202301 -0.979323
vn 0.000000 0.202301 -0.979323
vn 0.000000 0.202301 -0.979323
vn 0.000000 0.202301 -0.979323
vn 0.000000 -0.707082 -0.707131
vn 0.000000 -0.707082 -0.707131
vn 0.000000 -0.707082 -0.707131
vn 0.000000 -0.707082 -0.707131
vn 0.000000 0.000000 1.000000
vn 0.000000 0.000000 1.000000
vn 0.000000 0.000000 1.000000
vn 0.000000 0.000000 1.000000
vn 0.000000 1.000000 0.000000
vn 0.000000 1.000000 0.000000
vn 0.000000 1.000000 0.000000
vn 0.000000 1.000000 0.000000
vn 0.000000 0.000000 -1.000000
vn 0.000000 0.000000 -1.000000
vn 0.000000 0.000000 -1.000000
vn 0.000000 0.000000 -1.000000
vn 0.000000 -1.000000 0.000000
vn 0.000000 -1.000000 0.000000
vn 0.000000 -1.000000 0.000000
vn 0.000000 -1.000000 0.000000
vn 1.000000 0.000000 0.000000
vn 1.000000 0.000000 0.000000
vn 1.000000 0.000000 0.000000
vn 1.000000 0.000000 0.000000
vn -1.000000 0.000000 0.000000
vn -1.000000 0.000000 0.000000
vn -1.000000 0.000000 0.000000
vn -1.000000 0.000000 0.000000
s off
g lasana comida
usemtl lasania1
f 1/13/1 2/10/2 13/9/3 14/14/4
f 2/31/5 1/28/6 4/27/7 3/32/8
f 3/1/9 4/5/10 15/6/11 16/2/12
f 5/11/13 6/15/14 9/16/15 10/12/16
f 6/17/17 5/21/18 8/22/19 7/18/20
f 7/7/21 8/4/22 12/3/23 11/8/24
f 10/23/25 9/20/26 11/19/27 12/24/28
f 14/25/29 13/29/30 16/30/31 15/26/32
f 2/33/33 3/34/34 8/35/35 5/36/36
f 6/17/37 7/18/38 11/19/39 9/20/40
f 10/37/41 12/38/42 16/39/43 13/40/44
f 14/25/45 15/26/46 4/27/47 1/28/48
f 3/1/49 16/2/50 12/3/51 8/4/52
f 13/9/53 2/10/54 5/11/55 10/12/56
f 17/41/57 18/42/58 20/43/59 19/44/60
f 19/45/61 20/46/62 22/47/63 21/48/64
f 21/49/65 22/50/66 24/51/67 23/52/68
f 23/53/69 24/54/70 18/55/71 17/56/72
f 18/57/73 24/58/74 22/59/75 20/60/76
f 23/61/77 17/62/78 19/63/79 21/64/80
f 25/65/81 26/66/82 37/67/83 38/68/84
f 26/69/85 25/70/86 28/71/87 27/72/88
f 27/73/89 28/74/90 39/75/91 40/76/92
f 29/77/93 30/78/94 33/79/95 34/80/96
f 30/81/97 29/82/98 32/83/99 31/84/100
f 31/85/101 32/86/102 36/87/103 35/88/104
f 34/89/105 33/90/106 35/91/107 36/92/108
f 38/93/109 37/94/110 40/95/111 39/96/112
f 26/97/113 27/98/114 32/99/115 29/100/116
f 30/81/117 31/84/118 35/91/119 33/90/120
f 34/101/121 36/102/122 40/103/123 37/104/124
f 38/93/125 39/96/126 28/71/127 25/70/128
f 27/73/129 40/76/130 36/87/131 32/86/132
f 37/67/133 26/66/134 29/77/135 34/80/136
f 41/105/137 42/106/138 44/107/139 43/108/140
f 43/109/141 44/110/142 46/111/143 45/112/144
f 45/113/145 46/114/146 48/115/147 47/116/148
f 47/117/149 48/118/150 42/119/151 41/120/152
f 42/121/153 48/122/154 46/123/155 44/124/156
f 47/125/157 41/126/158 43/127/159 45/128/160
f 49/129/161 50/130/162 61/131/163 62/132/164
f 50/133/165 49/134/166 52/135/167 51/136/168
f 51/137/169 52/138/170 63/139/171 64/140/172
f 53/141/173 54/142/174 57/143/175 58/144/176
f 54/145/177 53/146/178 56/147/179 55/148/180
f 55/149/181 56/150/182 60/151/183 59/152/184
f 58/153/185 57/154/186 59/155/187 60/156/188
f 62/157/189 61/158/190 64/159/191 63/160/192
f 50/161/193 51/162/194 56/163/195 53/164/196
f 54/145/197 55/148/198 59/155/199 57/154/200
f 58/165/201 60/166/202 64/167/203 61/168/204
f 62/157/205 63/160/206 52/135/207 49/134/208
f 51/137/209 64/140/210 60/151/211 56/150/212
f 61/131/213 50/130/214 53/141/215 58/144/216
