# This file uses centimeters as units for non-parametric coordinates.

mtllib Pizza.mtl
g default
v 0.383334 0.000567 -0.184604
v 0.265276 0.000567 -0.332645
v 0.094676 0.000567 -0.414802
v -0.094676 0.000567 -0.414802
v -0.265276 0.000567 -0.332645
v -0.383334 0.000567 -0.184604
v -0.425469 0.000567 -0.000000
v -0.383334 0.000567 0.184604
v -0.265276 0.000567 0.332645
v -0.094676 0.000567 0.414802
v 0.094676 0.000567 0.414802
v 0.265276 0.000567 0.332645
v 0.383334 0.000567 0.184604
v 0.425469 0.000567 -0.000000
v 0.000000 0.000567 -0.000000
v 0.000000 0.036393 -0.000000
v 0.383334 0.038280 -0.184604
v 0.375784 0.052217 -0.180968
v 0.360862 0.051706 -0.173782
v 0.265276 0.038280 -0.332645
v 0.260051 0.052217 -0.326093
v 0.249724 0.051706 -0.313144
v 0.094676 0.038280 -0.414802
v 0.092811 0.052217 -0.406632
v 0.089126 0.051706 -0.390485
v -0.094676 0.038280 -0.414802
v -0.092811 0.052217 -0.406632
v -0.089126 0.051706 -0.390485
v -0.265276 0.038280 -0.332645
v -0.260051 0.052217 -0.326094
v -0.249724 0.051706 -0.313145
v -0.383334 0.038280 -0.184604
v -0.375784 0.052217 -0.180968
v -0.360862 0.051706 -0.173782
v -0.425469 0.038280 -0.000000
v -0.417089 0.052217 -0.000000
v -0.400527 0.051706 -0.000000
v -0.383334 0.038280 0.184604
v -0.375784 0.052217 0.180968
v -0.360862 0.051706 0.173782
v -0.265276 0.038280 0.332645
v -0.260051 0.052217 0.326093
v -0.249724 0.051706 0.313144
v -0.094676 0.038280 0.414802
v -0.092811 0.052217 0.406632
v -0.089126 0.051706 0.390485
v 0.094676 0.038280 0.414802
v 0.092811 0.052217 0.406632
v 0.089126 0.051706 0.390485
v 0.265276 0.038280 0.332645
v 0.260051 0.052217 0.326093
v 0.249724 0.051706 0.313145
v 0.383334 0.038280 0.184604
v 0.375784 0.052217 0.180968
v 0.360862 0.051706 0.173782
v 0.425469 0.038280 -0.000000
v 0.417089 0.052217 -0.000000
v 0.400527 0.051706 -0.000000
v 0.325027 0.036393 -0.156525
v 0.224926 0.036393 -0.282048
v 0.080275 0.036393 -0.351708
v -0.080275 0.036393 -0.351708
v -0.224926 0.036393 -0.282048
v -0.325027 0.036393 -0.156525
v -0.360753 0.036393 -0.000000
v -0.325027 0.036393 0.156525
v -0.224926 0.036393 0.282048
v -0.080275 0.036393 0.351708
v 0.080275 0.036393 0.351708
v 0.224926 0.036393 0.282048
v 0.325027 0.036393 0.156525
v 0.360753 0.036393 -0.000000
vt 0.220831 0.849651
vt 0.220831 0.740941
vt 0.243040 0.740941
vt 0.243040 0.849651
vt 0.220831 0.632231
vt 0.243040 0.632231
vt 0.251248 0.847509
vt 0.251248 0.740941
vt 0.220831 0.936829
vt 0.243040 0.936829
vt 0.220831 0.545053
vt 0.243040 0.545053
vt 0.251248 0.634372
vt 0.251248 0.932971
vt 0.251248 0.548911
vt 0.256912 0.849650
vt 0.256912 0.740941
vt 0.279120 0.740941
vt 0.279120 0.849650
vt 0.256912 0.632231
vt 0.279120 0.632231
vt 0.287328 0.847509
vt 0.287328 0.740941
vt 0.256912 0.936829
vt 0.279120 0.936829
vt 0.256912 0.545053
vt 0.279120 0.545053
vt 0.287328 0.634372
vt 0.287328 0.932970
vt 0.287328 0.548911
vt 0.081701 0.123484
vt 0.162680 0.058905
vt 0.263659 0.268591
vt 0.263659 0.035857
vt 0.036761 0.216803
vt 0.364638 0.058905
vt 0.036761 0.320379
vt 0.445617 0.123484
vt 0.081701 0.413697
vt 0.490557 0.216803
vt 0.162680 0.478276
vt 0.490557 0.320379
vt 0.263659 0.501324
vt 0.445617 0.413697
vt 0.364638 0.478276
vt 0.895066 0.600220
vt 0.826404 0.545464
vt 0.740785 0.723255
vt 0.740785 0.525922
vt 0.375890 0.637529
vt 0.933170 0.679344
vt 0.655165 0.545464
vt 0.423318 0.736014
vt 0.933170 0.767166
vt 0.586503 0.600220
vt 0.379748 0.634453
vt 0.428129 0.734915
vt 0.423318 0.845323
vt 0.895066 0.846290
vt 0.548399 0.679344
vt 0.345230 0.637529
vt 0.428129 0.846421
vt 0.375890 0.943807
vt 0.826404 0.901046
vt 0.548399 0.767166
vt 0.297803 0.736014
vt 0.379748 0.946884
vt 0.740785 0.920588
vt 0.586503 0.846290
vt 0.297803 0.845323
vt 0.292992 0.734916
vt 0.341372 0.634453
vt 0.655165 0.901046
vt 0.345230 0.943807
vt 0.292992 0.846421
vt 0.341372 0.946884
vt 0.215167 0.545053
vt 0.215167 0.645516
vt 0.192959 0.645516
vt 0.192959 0.545053
vt 0.215167 0.757021
vt 0.192959 0.757021
vt 0.215167 0.857484
vt 0.192959 0.857484
vt 0.165086 0.857484
vt 0.165086 0.757021
vt 0.187295 0.757021
vt 0.187295 0.857484
vt 0.165086 0.645516
vt 0.187295 0.645516
vt 0.165086 0.545053
vt 0.187295 0.545053
vt 0.883025 0.149308
vt 0.816450 0.096217
vt 0.825603 0.077211
vt 0.899517 0.136156
vt 0.733434 0.077269
vt 0.733434 0.056174
vt 0.829415 0.069297
vt 0.906385 0.130679
vt 0.919971 0.226027
vt 0.940537 0.221333
vt 0.650417 0.096217
vt 0.641264 0.077211
vt 0.733434 0.047389
vt 0.949101 0.219378
vt 0.919971 0.311179
vt 0.940537 0.315873
vt 0.583842 0.149308
vt 0.567350 0.136156
vt 0.637453 0.069297
vt 0.949101 0.317828
vt 0.883025 0.387898
vt 0.899518 0.401051
vt 0.546897 0.226027
vt 0.526330 0.221333
vt 0.560482 0.130679
vt 0.906386 0.406528
vt 0.816451 0.440989
vt 0.825603 0.459995
vt 0.546897 0.311179
vt 0.526330 0.315873
vt 0.517766 0.219378
vt 0.829415 0.467910
vt 0.733434 0.459937
vt 0.733434 0.481033
vt 0.583843 0.387898
vt 0.567350 0.401051
vt 0.517766 0.317828
vt 0.733434 0.489817
vt 0.650417 0.440989
vt 0.641264 0.459995
vt 0.560482 0.406528
vt 0.637453 0.467910
vn 0.126281 -0.979274 -0.158352
vn 0.182482 -0.979274 -0.087879
vn 0.000000 -1.000000 0.000000
vn 0.045069 -0.979274 -0.197461
vn -0.045069 -0.979274 -0.197461
vn -0.126281 -0.979274 -0.158352
vn -0.182482 -0.979274 -0.087879
vn -0.202539 -0.979274 -0.000000
vn -0.182482 -0.979274 0.087879
vn -0.126281 -0.979274 0.158352
vn -0.045069 -0.979274 0.197461
vn 0.045069 -0.979274 0.197461
vn 0.126281 -0.979274 0.158352
vn 0.182482 -0.979274 0.087879
vn 0.202539 -0.979274 0.000000
vn -0.224004 0.933232 0.280892
vn -0.323695 0.933232 0.155883
vn -0.221511 0.969306 0.106674
vn -0.153290 0.969306 0.192220
vn 0.616385 0.150536 -0.772922
vn 0.890702 0.150536 -0.428940
vn 0.219985 0.150536 -0.963818
vn -0.219985 0.150536 -0.963818
vn -0.616385 0.150536 -0.772922
vn -0.890702 0.150536 -0.428940
vn -0.988605 0.150536 -0.000000
vn -0.890702 0.150536 0.428939
vn -0.616385 0.150537 0.772922
vn -0.219985 0.150536 0.963818
vn 0.219985 0.150536 0.963818
vn 0.616385 0.150537 0.772922
vn 0.890702 0.150536 0.428939
vn 0.988604 0.150536 0.000000
vn 0.000000 1.000000 0.000000
vn 0.000000 1.000000 0.000000
vn 0.000000 1.000000 0.000000
vn 0.000000 1.000000 0.000000
vn 0.000000 1.000000 0.000000
vn 0.000000 1.000000 0.000000
vn 0.000000 1.000000 0.000000
vn 0.000000 1.000000 0.000000
vn 0.000000 1.000000 0.000000
vn 0.000000 1.000000 0.000000
vn 0.000000 1.000000 0.000000
vn 0.000000 1.000000 0.000000
vn 0.000000 1.000000 -0.000000
vn 0.000000 1.000000 -0.000000
vn 0.000000 1.000000 0.000000
vn 0.484686 0.842970 -0.233412
vn 0.537960 0.842970 0.000000
vn -0.245858 0.969306 -0.000000
vn 0.335413 0.842970 -0.420594
vn 0.119708 0.842970 -0.524472
vn -0.054709 0.969306 0.239694
vn -0.119707 0.842970 -0.524472
vn 0.054709 0.969306 0.239694
vn -0.335413 0.842970 -0.420594
vn 0.153290 0.969306 0.192220
vn -0.484686 0.842970 -0.233412
vn 0.221511 0.969306 0.106674
vn -0.537961 0.842970 -0.000000
vn 0.245858 0.969306 0.000000
vn -0.484685 0.842970 0.233413
vn 0.221511 0.969306 -0.106674
vn -0.335413 0.842970 0.420594
vn 0.153290 0.969306 -0.192220
vn -0.119708 0.842970 0.524473
vn 0.054709 0.969306 -0.239694
vn 0.119707 0.842970 0.524473
vn -0.054709 0.969306 -0.239694
vn 0.335413 0.842971 0.420594
vn -0.153290 0.969306 -0.192220
vn 0.484685 0.842970 0.233412
vn -0.221511 0.969306 -0.106674
vn -0.079946 0.933232 0.350266
vn 0.079946 0.933232 0.350266
vn 0.224003 0.933232 0.280892
vn 0.323694 0.933232 0.155883
vn 0.359274 0.933232 0.000000
vn 0.323695 0.933232 -0.155883
vn 0.224004 0.933232 -0.280892
vn 0.079946 0.933232 -0.350266
vn -0.079946 0.933232 -0.350266
vn -0.224004 0.933232 -0.280892
vn -0.323695 0.933232 -0.155883
vn -0.359274 0.933232 -0.000000
s 1
g pizza comida
usemtl pizza2
f 2/31/1 1/32/2 15/33/3
f 3/35/4 2/31/1 15/33/3
f 4/37/5 3/35/4 15/33/3
f 5/39/6 4/37/5 15/33/3
f 6/41/7 5/39/6 15/33/3
f 7/43/8 6/41/7 15/33/3
f 8/45/9 7/43/8 15/33/3
f 9/44/10 8/45/9 15/33/3
f 10/42/11 9/44/10 15/33/3
f 11/40/12 10/42/11 15/33/3
f 12/38/13 11/40/12 15/33/3
f 13/36/14 12/38/13 15/33/3
f 14/34/15 13/36/14 15/33/3
f 1/32/2 14/34/15 15/33/3
f 60/93/16 59/94/17 19/95/18 22/96/19
f 1/20/2 2/26/1 20/27/20 17/21/21
f 2/77/1 3/78/4 23/79/22 20/80/20
f 3/78/4 4/81/5 26/82/23 23/79/22
f 4/81/5 5/83/6 29/84/24 26/82/23
f 5/9/6 6/1/7 32/4/25 29/10/24
f 6/1/7 7/2/8 35/3/26 32/4/25
f 7/2/8 8/5/9 38/6/27 35/3/26
f 8/5/9 9/11/10 41/12/28 38/6/27
f 9/85/10 10/86/11 44/87/29 41/88/28
f 10/86/11 11/89/12 47/90/30 44/87/29
f 11/89/12 12/91/13 50/92/31 47/90/30
f 12/24/13 13/16/14 53/19/32 50/25/31
f 13/16/14 14/17/15 56/18/33 53/19/32
f 14/17/15 1/20/2 17/21/21 56/18/33
s 3
f 59/47/34 60/46/35 16/48/36
f 60/46/35 61/51/37 16/48/36
f 61/51/37 62/54/38 16/48/36
f 62/54/38 63/59/39 16/48/36
f 63/59/39 64/64/40 16/48/36
f 64/64/40 65/68/41 16/48/36
f 65/68/41 66/73/42 16/48/36
f 66/73/42 67/69/43 16/48/36
f 67/69/43 68/65/44 16/48/36
f 68/65/44 69/60/45 16/48/36
f 69/60/45 70/55/46 16/48/36
f 70/55/46 71/52/47 16/48/36
f 71/52/47 72/49/48 16/48/36
f 72/49/48 59/47/34 16/48/36
s 1
f 17/21/21 18/28/49 57/23/50 56/18/33
f 18/99/49 19/95/18 58/98/51 57/105/50
f 19/95/18 18/99/49 21/100/52 22/96/19
f 18/28/49 17/21/21 20/27/20 21/30/52
f 22/96/19 21/100/52 24/106/53 25/102/54
f 21/50/52 20/56/20 23/57/22 24/53/53
f 25/102/54 24/106/53 27/112/55 28/108/56
f 24/53/53 23/57/22 26/62/23 27/58/55
f 28/108/56 27/112/55 30/118/57 31/114/58
f 27/58/55 26/62/23 29/67/24 30/63/57
f 31/114/58 30/118/57 33/124/59 34/120/60
f 30/14/57 29/10/24 32/4/25 33/7/59
f 34/120/60 33/124/59 36/130/61 37/126/62
f 33/7/59 32/4/25 35/3/26 36/8/61
f 37/126/62 36/130/61 39/134/63 40/132/64
f 36/8/61 35/3/26 38/6/27 39/13/63
f 40/132/64 39/134/63 42/133/65 43/128/66
f 39/13/63 38/6/27 41/12/28 42/15/65
f 43/128/66 42/133/65 45/129/67 46/122/68
f 42/74/65 41/76/28 44/75/29 45/70/67
f 46/122/68 45/129/67 48/123/69 49/116/70
f 45/70/67 44/75/29 47/71/30 48/66/69
f 49/116/70 48/123/69 51/117/71 52/110/72
f 48/66/69 47/71/30 50/72/31 51/61/71
f 52/110/72 51/117/71 54/111/73 55/104/74
f 51/29/71 50/25/31 53/19/32 54/22/73
f 55/104/74 54/111/73 57/105/50 58/98/51
f 54/22/73 53/19/32 56/18/33 57/23/50
f 61/101/75 60/93/16 22/96/19 25/102/54
f 62/107/76 61/101/75 25/102/54 28/108/56
f 63/113/77 62/107/76 28/108/56 31/114/58
f 64/119/78 63/113/77 31/114/58 34/120/60
f 65/125/79 64/119/78 34/120/60 37/126/62
f 66/131/80 65/125/79 37/126/62 40/132/64
f 67/127/81 66/131/80 40/132/64 43/128/66
f 68/121/82 67/127/81 43/128/66 46/122/68
f 69/115/83 68/121/82 46/122/68 49/116/70
f 70/109/84 69/115/83 49/116/70 52/110/72
f 71/103/85 70/109/84 52/110/72 55/104/74
f 72/97/86 71/103/85 55/104/74 58/98/51
f 59/94/17 72/97/86 58/98/51 19/95/18
