# Blender 4.2.3 LTS
# www.blender.org
mtllib Pizza.mtl
o Pizza
v 0.383334 0.000567 -0.184604
v 0.265276 0.000567 -0.332645
v 0.094676 0.000567 -0.414802
v -0.094676 0.000567 -0.414802
v -0.265276 0.000567 -0.332645
v -0.383334 0.000567 -0.184604
v -0.425469 0.000567 -0.000000
v -0.383334 0.000567 0.184604
v -0.265276 0.000567 0.332645
v -0.094676 0.000567 0.414802
v 0.094676 0.000567 0.414802
v 0.265276 0.000567 0.332645
v 0.383334 0.000567 0.184604
v 0.425469 0.000567 -0.000000
v 0.000000 0.000567 -0.000000
v 0.000000 0.036393 -0.000000
v 0.383334 0.038280 -0.184604
v 0.375784 0.052217 -0.180968
v 0.360862 0.051706 -0.173782
v 0.265276 0.038280 -0.332645
v 0.260051 0.052217 -0.326093
v 0.249724 0.051706 -0.313144
v 0.094676 0.038280 -0.414802
v 0.092811 0.052217 -0.406632
v 0.089126 0.051706 -0.390485
v -0.094676 0.038280 -0.414802
v -0.092811 0.052217 -0.406632
v -0.089126 0.051706 -0.390485
v -0.265276 0.038280 -0.332645
v -0.260051 0.052217 -0.326094
v -0.249724 0.051706 -0.313145
v -0.383334 0.038280 -0.184604
v -0.375784 0.052217 -0.180968
v -0.360862 0.051706 -0.173782
v -0.425469 0.038280 -0.000000
v -0.417089 0.052217 -0.000000
v -0.400527 0.051706 -0.000000
v -0.383334 0.038280 0.184604
v -0.375784 0.052217 0.180968
v -0.360862 0.051706 0.173782
v -0.265276 0.038280 0.332645
v -0.260051 0.052217 0.326093
v -0.249724 0.051706 0.313144
v -0.094676 0.038280 0.414802
v -0.092811 0.052217 0.406632
v -0.089126 0.051706 0.390485
v 0.094676 0.038280 0.414802
v 0.092811 0.052217 0.406632
v 0.089126 0.051706 0.390485
v 0.265276 0.038280 0.332645
v 0.260051 0.052217 0.326093
v 0.249724 0.051706 0.313145
v 0.383334 0.038280 0.184604
v 0.375784 0.052217 0.180968
v 0.360862 0.051706 0.173782
v 0.425469 0.038280 -0.000000
v 0.417089 0.052217 -0.000000
v 0.400527 0.051706 -0.000000
v 0.325027 0.036393 -0.156525
v 0.224926 0.036393 -0.282048
v 0.080275 0.036393 -0.351708
v -0.080275 0.036393 -0.351708
v -0.224926 0.036393 -0.282048
v -0.325027 0.036393 -0.156525
v -0.360753 0.036393 -0.000000
v -0.325027 0.036393 0.156525
v -0.224926 0.036393 0.282048
v -0.080275 0.036393 0.351708
v 0.080275 0.036393 0.351708
v 0.224926 0.036393 0.282048
v 0.325027 0.036393 0.156525
v 0.360753 0.036393 -0.000000
vn 0.1331 -0.9769 -0.1670
vn 0.1924 -0.9769 -0.0927
vn -0.0000 -1.0000 -0.0000
vn 0.0475 -0.9769 -0.2082
vn -0.0476 -0.9769 -0.2082
vn -0.1332 -0.9769 -0.1669
vn -0.1924 -0.9769 -0.0926
vn -0.2135 -0.9769 -0.0000
vn -0.1924 -0.9769 0.0927
vn -0.1331 -0.9769 0.1670
vn -0.0475 -0.9769 0.2082
vn 0.0476 -0.9769 0.2082
vn 0.1332 -0.9769 0.1669
vn 0.1924 -0.9769 0.0926
vn 0.2135 -0.9769 -0.0000
vn -0.3237 0.9332 0.1559
vn -0.1530 0.9694 0.1918
vn -0.2240 0.9332 0.2809
vn 0.8907 0.1504 -0.4289
vn 0.5119 0.2628 -0.8179
vn 0.1065 0.2628 -0.9590
vn -0.3202 0.2628 -0.9102
vn -0.6834 0.2628 -0.6811
vn -0.9113 0.2628 -0.3170
vn -0.9586 0.2628 0.1096
vn -0.8161 0.2628 0.5147
vn -0.5119 0.2628 0.8179
vn -0.1065 0.2628 0.9590
vn 0.3202 0.2628 0.9102
vn 0.6835 0.2628 0.6810
vn 0.9113 0.2628 0.3171
vn 0.9586 0.2628 -0.1096
vn -0.0000 1.0000 -0.0000
vn 0.4842 0.8431 -0.2339
vn -0.2445 0.9696 -0.0000
vn 0.5292 0.8484 -0.0085
vn -0.2230 0.9696 0.1004
vn 0.3352 0.8432 -0.4204
vn -0.0544 0.9697 0.2383
vn 0.1101 0.8467 -0.5206
vn -0.1197 0.8431 -0.5243
vn 0.0545 0.9696 0.2387
vn -0.3353 0.8431 -0.4204
vn 0.1530 0.9694 0.1918
vn 0.2204 0.9696 0.1061
vn -0.4828 0.8467 -0.2235
vn 0.2445 0.9696 -0.0000
vn -0.5320 0.8467 0.0085
vn -0.4845 0.8431 0.2333
vn 0.2206 0.9696 -0.1062
vn -0.3352 0.8432 0.4204
vn 0.1530 0.9694 -0.1918
vn 0.0544 0.9697 -0.2383
vn -0.1101 0.8467 0.5206
vn 0.1197 0.8431 0.5242
vn -0.0546 0.9694 -0.2392
vn -0.1526 0.9696 -0.1914
vn 0.3381 0.8467 0.4108
vn -0.2204 0.9696 -0.1061
vn 0.4829 0.8467 0.2234
vn -0.0799 0.9332 0.3503
vn 0.0799 0.9332 0.3503
vn 0.2240 0.9332 0.2809
vn 0.3237 0.9332 0.1559
vn 0.3593 0.9332 -0.0000
vn 0.3237 0.9332 -0.1559
vn 0.2240 0.9332 -0.2809
vn 0.0799 0.9332 -0.3503
vn -0.0799 0.9332 -0.3503
vn -0.2240 0.9332 -0.2809
vn -0.3237 0.9332 -0.1559
vn -0.3593 0.9332 -0.0000
vt 0.081701 0.123484
vt 0.162680 0.058905
vt 0.263659 0.268591
vt 0.036761 0.216803
vt 0.036761 0.320379
vt 0.081701 0.413697
vt 0.162680 0.478276
vt 0.263659 0.501324
vt 0.364638 0.478276
vt 0.445617 0.413697
vt 0.490557 0.320379
vt 0.490557 0.216803
vt 0.445617 0.123484
vt 0.364638 0.058905
vt 0.263659 0.035857
vt 0.816450 0.096217
vt 0.899517 0.136156
vt 0.883025 0.149308
vt 0.256912 0.545053
vt 0.279120 0.632231
vt 0.256912 0.632231
vt 0.215167 0.645516
vt 0.192959 0.545053
vt 0.215167 0.545053
vt 0.215167 0.757021
vt 0.192959 0.645516
vt 0.215167 0.857484
vt 0.192959 0.757021
vt 0.220831 0.849651
vt 0.243040 0.936829
vt 0.220831 0.936829
vt 0.220831 0.740941
vt 0.243040 0.849651
vt 0.220831 0.632231
vt 0.243040 0.740941
vt 0.220831 0.545053
vt 0.243040 0.632231
vt 0.165086 0.757021
vt 0.187295 0.857484
vt 0.165086 0.857484
vt 0.165086 0.645516
vt 0.187295 0.757021
vt 0.165086 0.545053
vt 0.187295 0.645516
vt 0.256912 0.849650
vt 0.279120 0.936829
vt 0.256912 0.936829
vt 0.256912 0.740941
vt 0.279120 0.849650
vt 0.279120 0.740941
vt 0.826404 0.545464
vt 0.895066 0.600220
vt 0.740785 0.723255
vt 0.933170 0.679344
vt 0.933170 0.767166
vt 0.895066 0.846290
vt 0.826404 0.901046
vt 0.740785 0.920588
vt 0.655165 0.901046
vt 0.586503 0.846290
vt 0.548399 0.767166
vt 0.548399 0.679344
vt 0.586503 0.600220
vt 0.655165 0.545464
vt 0.740785 0.525922
vt 0.287328 0.634372
vt 0.829415 0.069297
vt 0.733434 0.056174
vt 0.733434 0.047389
vt 0.825603 0.077211
vt 0.906385 0.130679
vt 0.287328 0.548911
vt 0.940537 0.221333
vt 0.375890 0.637529
vt 0.428129 0.734915
vt 0.423318 0.736014
vt 0.949101 0.317828
vt 0.940537 0.315873
vt 0.423318 0.845323
vt 0.906386 0.406528
vt 0.899518 0.401051
vt 0.428129 0.846421
vt 0.375890 0.943807
vt 0.825603 0.459995
vt 0.251248 0.847509
vt 0.251248 0.932971
vt 0.829415 0.467910
vt 0.733434 0.481033
vt 0.251248 0.740941
vt 0.637453 0.467910
vt 0.641264 0.459995
vt 0.251248 0.634372
vt 0.560482 0.406528
vt 0.567350 0.401051
vt 0.251248 0.548911
vt 0.526330 0.315873
vt 0.345230 0.943807
vt 0.292992 0.846421
vt 0.297803 0.845323
vt 0.517766 0.219378
vt 0.526330 0.221333
vt 0.297803 0.736014
vt 0.567350 0.136156
vt 0.292992 0.734916
vt 0.345230 0.637529
vt 0.560482 0.130679
vt 0.641264 0.077211
vt 0.287328 0.932970
vt 0.287328 0.847509
vt 0.637453 0.069297
vt 0.287328 0.740941
vt 0.919971 0.226027
vt 0.919971 0.311179
vt 0.883025 0.387898
vt 0.816451 0.440989
vt 0.733434 0.459937
vt 0.650417 0.440989
vt 0.583843 0.387898
vt 0.546897 0.311179
vt 0.546897 0.226027
vt 0.583842 0.149308
vt 0.650417 0.096217
vt 0.733434 0.077269
vt 0.279120 0.545053
vt 0.192959 0.857484
vt 0.243040 0.545053
vt 0.187295 0.545053
vt 0.949101 0.219378
vt 0.379748 0.634453
vt 0.379748 0.946884
vt 0.733434 0.489817
vt 0.517766 0.317828
vt 0.341372 0.946884
vt 0.341372 0.634453
s 1
usemtl pizza2
f 2/1/1 1/2/2 15/3/3
f 3/4/4 2/1/1 15/3/3
f 4/5/5 3/4/4 15/3/3
f 5/6/6 4/5/5 15/3/3
f 6/7/7 5/6/6 15/3/3
f 7/8/8 6/7/7 15/3/3
f 8/9/9 7/8/8 15/3/3
f 9/10/10 8/9/9 15/3/3
f 10/11/11 9/10/10 15/3/3
f 11/12/12 10/11/11 15/3/3
f 12/13/13 11/12/12 15/3/3
f 13/14/14 12/13/13 15/3/3
f 14/15/15 13/14/14 15/3/3
f 1/2/2 14/15/15 15/3/3
f 59/16/16 22/17/17 60/18/18
f 2/19/1 17/20/19 1/21/2
f 3/22/4 20/23/20 2/24/1
f 4/25/5 23/26/21 3/22/4
f 5/27/6 26/28/22 4/25/5
f 6/29/7 29/30/23 5/31/6
f 7/32/8 32/33/24 6/29/7
f 8/34/9 35/35/25 7/32/8
f 9/36/10 38/37/26 8/34/9
f 10/38/11 41/39/27 9/40/10
f 11/41/12 44/42/28 10/38/11
f 12/43/13 47/44/29 11/41/12
f 13/45/14 50/46/30 12/47/13
f 14/48/15 53/49/31 13/45/14
f 1/21/2 56/50/32 14/48/15
f 59/51/33 60/52/33 16/53/33
f 60/52/33 61/54/33 16/53/33
f 61/54/33 62/55/33 16/53/33
f 62/55/33 63/56/33 16/53/33
f 63/56/33 64/57/33 16/53/33
f 64/57/33 65/58/33 16/53/33
f 65/58/33 66/59/33 16/53/33
f 66/59/33 67/60/33 16/53/33
f 67/60/33 68/61/33 16/53/33
f 68/61/33 69/62/33 16/53/33
f 69/62/33 70/63/33 16/53/33
f 70/63/33 71/64/33 16/53/33
f 71/64/33 72/65/33 16/53/33
f 72/65/33 59/51/33 16/53/33
f 18/66/34 56/50/32 17/20/19
f 18/67/34 58/68/35 57/69/36
f 19/70/37 21/71/38 22/17/17
f 17/20/19 21/72/38 18/66/34
f 21/71/38 25/73/39 22/17/17
f 21/74/38 23/75/21 24/76/40
f 25/73/39 27/77/41 28/78/42
f 23/75/21 27/79/41 24/76/40
f 28/78/42 30/80/43 31/81/44
f 26/82/22 30/83/43 27/79/41
f 30/80/43 34/84/45 31/81/44
f 29/30/23 33/85/46 30/86/43
f 33/87/46 37/88/47 34/84/45
f 33/85/46 35/35/25 36/89/48
f 37/88/47 39/90/49 40/91/50
f 35/35/25 39/92/49 36/89/48
f 40/91/50 42/93/51 43/94/52
f 38/37/26 42/95/51 39/92/49
f 42/93/51 46/96/53 43/94/52
f 42/97/51 44/98/28 45/99/54
f 46/96/53 48/100/55 49/101/56
f 44/98/28 48/102/55 45/99/54
f 48/100/55 52/103/57 49/101/56
f 47/104/29 51/105/58 48/102/55
f 51/106/58 55/107/59 52/103/57
f 51/108/58 53/49/31 54/109/60
f 54/110/60 58/68/35 55/107/59
f 54/109/60 56/50/32 57/111/36
f 60/18/18 25/73/39 61/112/61
f 61/112/61 28/78/42 62/113/62
f 62/113/62 31/81/44 63/114/63
f 63/114/63 34/84/45 64/115/64
f 65/116/65 34/84/45 37/88/47
f 65/116/65 40/91/50 66/117/66
f 66/117/66 43/94/52 67/118/67
f 67/118/67 46/96/53 68/119/68
f 68/119/68 49/101/56 69/120/69
f 69/120/69 52/103/57 70/121/70
f 70/121/70 55/107/59 71/122/71
f 72/123/72 55/107/59 58/68/35
f 72/123/72 19/70/37 59/16/16
f 59/16/16 19/70/37 22/17/17
f 2/19/1 20/124/20 17/20/19
f 3/22/4 23/26/21 20/23/20
f 4/25/5 26/28/22 23/26/21
f 5/27/6 29/125/23 26/28/22
f 6/29/7 32/33/24 29/30/23
f 7/32/8 35/35/25 32/33/24
f 8/34/9 38/37/26 35/35/25
f 9/36/10 41/126/27 38/37/26
f 10/38/11 44/42/28 41/39/27
f 11/41/12 47/44/29 44/42/28
f 12/43/13 50/127/30 47/44/29
f 13/45/14 53/49/31 50/46/30
f 14/48/15 56/50/32 53/49/31
f 1/21/2 17/20/19 56/50/32
f 18/66/34 57/111/36 56/50/32
f 18/67/34 19/70/37 58/68/35
f 19/70/37 18/67/34 21/71/38
f 17/20/19 20/124/20 21/72/38
f 21/71/38 24/128/40 25/73/39
f 21/74/38 20/129/20 23/75/21
f 25/73/39 24/128/40 27/77/41
f 23/75/21 26/82/22 27/79/41
f 28/78/42 27/77/41 30/80/43
f 26/82/22 29/130/23 30/83/43
f 30/80/43 33/87/46 34/84/45
f 29/30/23 32/33/24 33/85/46
f 33/87/46 36/131/48 37/88/47
f 33/85/46 32/33/24 35/35/25
f 37/88/47 36/131/48 39/90/49
f 35/35/25 38/37/26 39/92/49
f 40/91/50 39/90/49 42/93/51
f 38/37/26 41/126/27 42/95/51
f 42/93/51 45/132/54 46/96/53
f 42/97/51 41/133/27 44/98/28
f 46/96/53 45/132/54 48/100/55
f 44/98/28 47/104/29 48/102/55
f 48/100/55 51/106/58 52/103/57
f 47/104/29 50/134/30 51/105/58
f 51/106/58 54/110/60 55/107/59
f 51/108/58 50/46/30 53/49/31
f 54/110/60 57/69/36 58/68/35
f 54/109/60 53/49/31 56/50/32
f 60/18/18 22/17/17 25/73/39
f 61/112/61 25/73/39 28/78/42
f 62/113/62 28/78/42 31/81/44
f 63/114/63 31/81/44 34/84/45
f 65/116/65 64/115/64 34/84/45
f 65/116/65 37/88/47 40/91/50
f 66/117/66 40/91/50 43/94/52
f 67/118/67 43/94/52 46/96/53
f 68/119/68 46/96/53 49/101/56
f 69/120/69 49/101/56 52/103/57
f 70/121/70 52/103/57 55/107/59
f 72/123/72 71/122/71 55/107/59
f 72/123/72 58/68/35 19/70/37
