# Blender 4.2.3 LTS
# www.blender.org
mtllib Risoto.mtl
o Risoto
v -0.158515 -0.000090 0.244593
v -0.142595 -0.000090 0.260515
v 0.158518 -0.000090 0.244593
v 0.142598 -0.000090 0.260515
v -0.158515 0.183144 0.260515
v -0.165112 0.183144 0.244593
v -0.142595 0.183144 0.267110
v 0.158518 0.183144 0.260515
v 0.142598 0.183144 0.267110
v 0.165115 0.183144 0.244593
v -0.158515 0.183144 -0.260515
v -0.142595 0.183144 -0.267110
v -0.165112 0.183144 -0.244593
v 0.158518 0.183144 -0.260515
v 0.165115 0.183144 -0.244593
v 0.142598 0.183144 -0.267110
v -0.158515 -0.000090 -0.244593
v -0.142595 -0.000090 -0.260515
v 0.158518 -0.000090 -0.244593
v 0.142598 -0.000090 -0.260515
v -0.158515 0.215545 0.244593
v -0.165112 0.199623 0.244593
v -0.158515 0.199623 0.260515
v -0.142595 0.199623 0.267110
v -0.142595 0.215545 0.260515
v -0.142595 0.222141 0.244593
v 0.158518 0.215545 0.244593
v 0.142598 0.222141 0.244593
v 0.142598 0.215545 0.260515
v 0.142598 0.199623 0.267110
v 0.158518 0.199623 0.260515
v 0.165115 0.199623 0.244593
v 0.142598 0.215545 -0.260515
v 0.142598 0.222141 -0.244593
v 0.158518 0.215545 -0.244593
v 0.165115 0.199623 -0.244593
v 0.158518 0.199623 -0.260515
v 0.142598 0.199623 -0.267110
v -0.158515 0.215545 -0.244593
v -0.142595 0.222141 -0.244593
v -0.142595 0.215545 -0.260515
v -0.142595 0.199623 -0.267110
v -0.158515 0.199623 -0.260515
v -0.165112 0.199623 -0.244593
v -0.155589 -0.000090 0.257588
v 0.155592 -0.000090 0.257588
v -0.155589 -0.000090 -0.257589
v 0.155592 -0.000090 -0.257589
v -0.155589 0.212619 0.257588
v 0.155592 0.212619 0.257588
v 0.155592 0.212619 -0.257589
v -0.155589 0.212619 -0.257589
vn -0.9994 -0.0328 0.0097
vn -0.9473 -0.0246 0.3193
vn -0.9209 0.1424 0.3629
vn -0.9801 0.1982 0.0107
vn -0.3193 -0.0246 0.9473
vn -0.0163 -0.0327 0.9993
vn -0.0180 0.1972 0.9802
vn -0.3629 0.1424 0.9209
vn -0.9993 -0.0358 -0.0095
vn -0.9993 -0.0358 0.0095
vn -0.9994 -0.0328 -0.0097
vn 0.0163 -0.0326 0.9993
vn -0.0160 -0.0356 0.9992
vn 0.0160 -0.0356 0.9992
vn 0.3193 -0.0246 0.9473
vn 0.3629 0.1424 0.9209
vn 0.0180 0.1972 0.9802
vn 0.9473 -0.0246 0.3193
vn 0.9994 -0.0328 0.0097
vn 0.9801 0.1982 0.0107
vn 0.9209 0.1424 0.3629
vn 0.9994 -0.0328 -0.0097
vn 0.9993 -0.0358 0.0095
vn 0.9993 -0.0358 -0.0095
vn -0.0163 -0.0327 -0.9993
vn -0.3193 -0.0246 -0.9473
vn -0.3629 0.1424 -0.9209
vn -0.0180 0.1972 -0.9802
vn -0.9473 -0.0246 -0.3193
vn -0.9801 0.1982 -0.0107
vn -0.9209 0.1424 -0.3629
vn 0.0160 -0.0356 -0.9992
vn -0.0160 -0.0356 -0.9992
vn 0.0163 -0.0326 -0.9993
vn 0.9473 -0.0246 -0.3193
vn 0.9209 0.1424 -0.3629
vn 0.9801 0.1982 -0.0107
vn 0.3193 -0.0246 -0.9473
vn 0.0180 0.1972 -0.9802
vn 0.3629 0.1424 -0.9209
vn -0.0000 -1.0000 -0.0000
vn -0.9242 0.3819 0.0082
vn -0.9242 0.3819 -0.0082
vn -0.3818 0.9242 0.0082
vn -0.0217 0.9997 0.0128
vn -0.0217 0.9997 -0.0128
vn -0.3818 0.9242 -0.0081
vn -0.0137 0.9244 0.3811
vn 0.0137 0.9244 0.3811
vn 0.0217 0.9997 0.0129
vn -0.0137 0.3811 0.9244
vn 0.0137 0.3811 0.9244
vn 0.3818 0.9242 0.0082
vn 0.3818 0.9242 -0.0082
vn 0.0217 0.9997 -0.0128
vn 0.9242 0.3819 0.0082
vn 0.9242 0.3819 -0.0082
vn 0.0137 0.9244 -0.3811
vn -0.0137 0.9244 -0.3811
vn 0.0137 0.3811 -0.9244
vn -0.0137 0.3811 -0.9244
vn -0.3127 -0.0272 0.9495
vn -0.9495 -0.0272 0.3127
vn 0.9495 -0.0272 0.3127
vn 0.3127 -0.0272 0.9495
vn -0.9495 -0.0272 -0.3127
vn -0.3126 -0.0272 -0.9495
vn 0.3126 -0.0272 -0.9495
vn 0.9495 -0.0272 -0.3127
vn -0.3253 0.8879 0.3253
vn -0.8879 0.3253 0.3253
vn -0.3253 0.3253 0.8879
vn 0.8879 0.3253 0.3253
vn 0.3253 0.8879 0.3253
vn 0.3253 0.3253 0.8879
vn 0.3253 0.3253 -0.8879
vn 0.3253 0.8879 -0.3253
vn 0.8879 0.3253 -0.3253
vn -0.8879 0.3253 -0.3253
vn -0.3253 0.8879 -0.3253
vn -0.3253 0.3253 -0.8879
vt 0.206004 0.065513
vt 0.206004 0.051871
vt 0.220125 0.051871
vt 0.220125 0.065513
vt 0.591120 0.773339
vt 0.591120 0.759698
vt 0.605240 0.759698
vt 0.605240 0.773339
vt 0.049005 0.484661
vt 0.049005 0.065513
vt 0.206004 0.484661
vt 0.591120 0.515337
vt 0.434120 0.759698
vt 0.434120 0.515337
vt 0.591120 0.501697
vt 0.605240 0.501697
vt 0.605240 0.515337
vt 0.396707 0.498303
vt 0.396707 0.484661
vt 0.410828 0.484661
vt 0.410828 0.498303
vt 0.396707 0.065513
vt 0.239708 0.484661
vt 0.239708 0.065513
vt 0.271905 0.759698
vt 0.271905 0.773339
vt 0.257785 0.773339
vt 0.257785 0.759698
vt 0.206004 0.498303
vt 0.220125 0.484661
vt 0.220125 0.498303
vt 0.428905 0.515337
vt 0.428905 0.759698
vt 0.271905 0.515337
vt 0.396707 0.051871
vt 0.410828 0.051871
vt 0.410828 0.065513
vt 0.271905 0.501697
vt 0.257785 0.515337
vt 0.257785 0.501697
vt 0.443886 0.051871
vt 0.688247 0.051871
vt 0.699381 0.054378
vt 0.701887 0.065513
vt 0.701887 0.484661
vt 0.699381 0.495796
vt 0.688247 0.498303
vt 0.443886 0.498303
vt 0.432752 0.495796
vt 0.430245 0.484661
vt 0.430245 0.065513
vt 0.432752 0.054378
vt 0.233766 0.065513
vt 0.233766 0.484661
vt 0.624098 0.515339
vt 0.637739 0.515339
vt 0.637739 0.934487
vt 0.624098 0.934487
vt 0.637739 0.501697
vt 0.882099 0.501697
vt 0.882099 0.515339
vt 0.618882 0.759698
vt 0.618882 0.515337
vt 0.895740 0.515339
vt 0.895740 0.934487
vt 0.882099 0.934487
vt 0.424470 0.484661
vt 0.424470 0.065513
vt 0.882099 0.948129
vt 0.637739 0.948129
vt 0.244143 0.515337
vt 0.244143 0.759698
vt 0.434121 0.770832
vt 0.049005 0.054378
vt 0.239708 0.495796
vt 0.434121 0.504204
vt 0.049005 0.495796
vt 0.428905 0.770832
vt 0.428905 0.504204
vt 0.239708 0.054378
vt 0.626605 0.504204
vt 0.231260 0.054378
vt 0.616375 0.770832
vt 0.421963 0.495796
vt 0.893233 0.504204
vt 0.616375 0.504204
vt 0.246650 0.504204
vt 0.893233 0.945622
vt 0.421963 0.054378
vt 0.231260 0.495796
vt 0.626605 0.945622
vt 0.246650 0.770832
s 1
usemtl risotto1
f 6/1/1 5/2/2 23/3/3 22/4/4
f 5/5/5 7/6/6 24/7/7 23/8/8
f 17/9/9 1/10/10 6/1/1 13/11/11
f 9/12/12 7/6/6 2/13/13 4/14/14
f 9/12/12 8/15/15 31/16/16 30/17/17
f 8/18/18 10/19/19 32/20/20 31/21/21
f 15/22/22 10/19/19 3/23/23 19/24/24
f 12/25/25 11/26/26 43/27/27 42/28/28
f 11/29/29 13/11/11 44/30/30 43/31/31
f 20/32/32 18/33/33 12/25/25 16/34/34
f 15/22/22 14/35/35 37/36/36 36/37/37
f 14/38/38 16/34/34 38/39/39 37/40/40
s 0
f 18/41/41 20/42/41 48/43/41 19/44/41 3/45/41 46/46/41 4/47/41 2/48/41 45/49/41 1/50/41 17/51/41 47/52/41
s 1
f 22/4/4 21/53/42 39/54/43 44/30/30
f 21/55/44 26/56/45 40/57/46 39/58/47
f 26/56/45 25/59/48 29/60/49 28/61/50
f 25/62/51 24/7/7 30/17/17 29/63/52
f 28/61/50 27/64/53 35/65/54 34/66/55
f 27/67/56 32/20/20 36/37/37 35/68/57
f 34/66/55 33/69/58 41/70/59 40/57/46
f 33/71/60 38/39/39 42/28/28 41/72/61
f 26/56/45 28/61/50 34/66/55 40/57/46
f 7/6/6 9/12/12 30/17/17 24/7/7
f 10/19/19 15/22/22 36/37/37 32/20/20
f 16/34/34 12/25/25 42/28/28 38/39/39
f 13/11/11 6/1/1 22/4/4 44/30/30
f 2/13/13 7/6/6 5/5/5 45/73/62
f 5/2/2 6/1/1 1/10/10 45/74/63
f 3/23/23 10/19/19 8/18/18 46/75/64
f 8/15/15 9/12/12 4/14/14 46/76/65
f 17/9/9 13/11/11 11/29/29 47/77/66
f 11/26/26 12/25/25 18/33/33 47/78/67
f 20/32/32 16/34/34 14/38/38 48/79/68
f 14/35/35 15/22/22 19/24/24 48/80/69
f 25/59/48 26/56/45 21/55/44 49/81/70
f 21/53/42 22/4/4 23/3/3 49/82/71
f 23/8/8 24/7/7 25/62/51 49/83/72
f 31/21/21 32/20/20 27/67/56 50/84/73
f 27/64/53 28/61/50 29/60/49 50/85/74
f 29/63/52 30/17/17 31/16/16 50/86/75
f 37/40/40 38/39/39 33/71/60 51/87/76
f 33/69/58 34/66/55 35/65/54 51/88/77
f 35/68/57 36/37/37 37/36/36 51/89/78
f 43/31/31 44/30/30 39/54/43 52/90/79
f 39/58/47 40/57/46 41/70/59 52/91/80
f 41/72/61 42/28/28 43/27/27 52/92/81
